<svg xmlns="http://www.w3.org/2000/svg" viewBox="0 0 173.91 116.26"><defs><style>.cls-1{fill:#d4defe;}.cls-2{fill:#eae8fd;}.cls-3{fill:#96acfe;}.cls-4{fill:#2664fe;}.cls-5{fill:#8571fe;}.cls-6{fill:#15043f;}.cls-7{fill:#556efe;}.cls-8{fill:#c6c6f7;}.cls-9{fill:#fb8291;}.cls-10{fill:#6a42fe;}.cls-11{fill:#fd80d8;}.cls-12{fill:#0be195;}.cls-13{fill:#6e076c;}.cls-14{fill:#e3f2fe;}.cls-15{fill:#ea0a7b;}.cls-16{fill:#fdfdfe;}</style></defs><title>Ativo 21</title><g id="Camada_2" data-name="Camada 2"><g id="Camada_6" data-name="Camada 6"><path class="cls-1" d="M74.75,0c0,1.84,0,3.67,0,5.51,0,.7-.19,1-.94,1H43.53c-.75,0-1-.28-1-1,0-1.84,0-3.67,0-5.51Z"/><path class="cls-2" d="M12.81,83.05a.45.45,0,0,0-.42.68c.44,1-.18.83-.75.75-1.17-.17-2.33.31-3.52.11-.08,0-.21.22-.32.33H7.29a4.54,4.54,0,0,0-4,0l-.51,0a1,1,0,0,0-1.26-.4c-1,.24-.94-.32-.87-1a4.22,4.22,0,0,0,.19-1.62.46.46,0,0,0-.44-.32V73H.61c0,.78.42,1,1.06.65,1.07-.51,2.11-1.1,3.19-1.61a.87.87,0,0,0,.53-.94,6,6,0,0,0,3.12-.74l9.36,0a2,2,0,0,1,.24,1.19c-1,0-2,0-3,0-.57,0-.85.11-.93.75-.35,3-.75,5.92-1.14,8.87A6.28,6.28,0,0,0,12.81,83.05Z"/><path class="cls-3" d="M17.87,70.33l-9.36,0a1.75,1.75,0,0,1,.24-1.18c4,.14,8,.34,12,.16l8.63,0h8.12l8.57-.06c2.92.12,5.83.1,8.75,0H69.73l6.42.07H82l1.47,0h5.86l12.79-.07h13.64l4.15,0,3.29,0,.52,0h5.35l.2,0,.69,0,5.21,0c1.38-.11,2.78.24,4.14-.22.32.35.74.2,1.11.2,1.3,0,2.6,0,3.9,0h8.92c2.91,0,5.83,0,8.74,0,.94,0,1.13.34,1.13,1.19,0,6.59,0,13.17,0,19.76l.06.89c0,.51-.06,1-.06,1.55q0,9,0,18.06c0,1,0,1.9.08,2.86s0,1.66,0,2.49a1.6,1.6,0,0,1-1.23-.19l-.09-2.38c.39-.3.27-.73.27-1.11,0-7.06,0-14.13,0-21.19a1.88,1.88,0,0,0-.21-1.16l0-.33c0-6.15,0-12.3,0-18.44,0-.79-.25-1-1-1-4,0-8,0-12,0s-8.15,0-12.23,0c-1.14,0-.94.68-.94,1.34q0,17.68,0,35.38c0,2.68,0,5.36,0,8,0,.9-.27,1.14-1.16,1.14-7,0-13.91,0-20.87,0h-64c-1.77,0-1.57.18-1.57-1.63q0-21.4,0-42.82c0-1.16-.32-1.44-1.47-1.44C37.06,70.33,27.46,70.32,17.87,70.33Zm116,22.35c0-.07.13-.13.13-.2q0-3.83.07-7.66c0-.58-.4-.59-.83-.59-6.87,0-13.74,0-20.61,0-.69,0-.9.25-.89.91,0,2,0,4.08,0,6.11,0,1.68,0,1.68,1.7,1.61h18.94C132.84,92.84,133.36,93,133.82,92.68Zm0-10.56c0-.07.13-.13.13-.19,0-2.56.05-5.11.07-7.67,0-.58-.41-.59-.83-.59-6.87,0-13.74,0-20.61,0-.68,0-.9.25-.89.91,0,2,0,4.08,0,6.11,0,1.67,0,1.67,1.69,1.62H132.1C132.68,82.26,133.28,82.51,133.82,82.12Zm-32.68.18h5.76a7.77,7.77,0,0,1,.84,0c1,.16,1.4-.21,1.36-1.3-.09-2.12,0-4.24,0-6.36,0-.67-.13-1-.91-1q-10.26,0-20.52,0c-.66,0-.92.2-.92.89,0,2.28,0,4.56,0,6.84,0,.76.28,1,1,1,2.87,0,5.75,0,8.63,0ZM70.44,113h4.77c2.76,0,5.51,0,8.26,0,.86,0,1.12-.33,1.11-1.14,0-2.19,0-4.39,0-6.58,0-.79-.23-1.16-1.09-1.16q-10.17,0-20.35,0c-.85,0-1.12.34-1.1,1.15,0,2,0,4.07,0,6.1,0,1.66,0,1.66,1.67,1.58h6.72Zm37.42-20.15c.92.19,1.26-.14,1.23-1.13-.07-2.19,0-4.38,0-6.58,0-.64-.18-.92-.88-.92q-10.29,0-20.58,0c-.69,0-.89.26-.88.92,0,1.87,0,3.75,0,5.62,0,2.17,0,2.17,2.17,2.1ZM97.87,113c3.36,0,6.72,0,10.08,0,.92,0,1.16-.29,1.14-1.17-.06-2.16,0-4.32,0-6.48,0-.76-.2-1-1-1q-10.2,0-20.4,0c-.74,0-1,.26-1,1,0,2.2.06,4.4,0,6.59,0,1,.35,1.13,1.2,1.11C91.24,113,94.56,113,97.87,113Z"/><path class="cls-2" d="M163.08,90.27c0-6.59,0-13.17,0-19.76,0-.85-.19-1.21-1.13-1.19-2.91.06-5.83,0-8.74,0,0-.48,0-1,0-1.44,0-1.8.25-1.61-1.57-1.63l-3,0c-.54-.89-.33-1.89-.42-2.89h4.46c.37,0,.82.15,1-.37v-.63c-.15-.56-.61-.42-1-.42-1.32,0-2.63,0-3.94,0-.6,0-1.25-.31-1.17-.72.14-.74-.39-1-.63-1.44a3.72,3.72,0,0,1,.93-1.92c.5.77,1.14,1.36.53,2.29a.52.52,0,0,0,.34.77c.42.15.65-.1.84-.45s.2-.77.67-.74.43.5.54.83.32.67.77.52a.59.59,0,0,0,.4-.86c-.41-.86.16-1.31.65-1.83.22.33.54.63.82.16s1.15-.79.68-1.59c-.3-.52-.65-1-1-1.5-.13-.19-.31-.48-.54-.28s0,.44,0,.68a1.12,1.12,0,0,1-.44-1.35c.26-.83.36-1.71.59-2.55s.15-1.11-.71-1.33-1.21-.15-1.37.76A12.72,12.72,0,0,1,150,53.3a1.33,1.33,0,0,1-.68.91,13.26,13.26,0,0,0-3.05,2.26,19.36,19.36,0,0,0-1.07-4.27,16,16,0,0,1,.12,4.79c0,.22.16.44.24.66a13.29,13.29,0,0,0-1.26,5.72.88.88,0,0,0-.85.32c-1,1.27-2.5,1.34-3.84,1.84-.84-.69-1.83-.28-2.74-.32-2-.06-2,0-2.18,2-.51-.16-.71.47-1.16.47l-.1-.05.1.05a6.57,6.57,0,0,1-3.2,1c-.48,0-.36.31-.39.57l-.69,0A10.47,10.47,0,0,0,128,66.52c1.42-1.13,3.2-1.55,4.72-2.42,2.54-1.46,5.3-2.52,7.64-4.32a5.39,5.39,0,0,0,.91-1.22l.1,0-.1,0a15.47,15.47,0,0,1,1.2-3.36l.1,0-.1,0a3,3,0,0,1,.72-1.92l.1,0-.1,0a15.52,15.52,0,0,1,1.36-4c.63-1.57.47-3.78,2.5-4.52,1.6-.59,3.22-1.33,5-.89l1,2.73a13.06,13.06,0,0,0,.87,3l1-3,1.47-3.91c.53.11,1,.36,1.56-.12a1,1,0,0,1,1,0c.3.11.64.24.91,0,.65-.48,1.35-.16,2-.23a3.27,3.27,0,0,1,3.57,1.85c.67,1.24,1.56,2.4,1.65,3.88,0,.36.39.51.32.85h0s-.1,0-.09.06a1.42,1.42,0,0,0,.08.18h0c1.5,3.7,3.38,7.23,4.74,11a15,15,0,0,1,1.26,3.17l-.06.1.06-.1a2,2,0,0,1,0,2.7,2.6,2.6,0,0,1-2.69.74c-.62-.16-1.11-.87-1.85-.55-2.76-1.34-5.72-2.16-8.56-3.3-1.48-.6-3-1.13-4.49-1.69a8.37,8.37,0,0,0,2.49,2.38c3.46,1.72,6.41,4.17,9.61,6.26a1.7,1.7,0,0,0,1.18.42c.07.17.23.35.22.52-.1,3,.28,6-.2,9.06a2.42,2.42,0,0,0,.16,1.4,3.35,3.35,0,0,1,.28,2c-.36,2-.38,4-.56,6-.08,1-.55,1.26-1.41,1.24h-.9C165.47,90.33,164.25,90.67,163.08,90.27ZM159.4,58.86c1.34.25,2.67.52,4,.73.79.12,1.82.83,2.32.19s-.51-1.39-.84-2.1c-.58-1.27-1.22-2.51-1.93-4-.36,1.35.3,2.65-.44,3.58S160.59,58.46,159.4,58.86Zm-8.93-8.57a.88.88,0,0,0-.2-.09.82.82,0,0,0-.19.06.66.66,0,0,0,.19.09A1.08,1.08,0,0,0,150.47,50.29Z"/><path class="cls-2" d="M83.47,69.34l-1.47,0c0-.4,0-.8,0-1.21a37.85,37.85,0,0,0,3.53-3.27c1-1.19,2.49-2.24,2.2-4.16l.1-.1-.11.1a33.44,33.44,0,0,0-7.17,3.6c-1.9.76-3.6,1.91-5.41,2.85-1.06.54-2,1.38-3.3,1.09a5.91,5.91,0,0,0-2-.34l-.09-1.16a2,2,0,0,1-.11-2.44c1.39-2.54,3.22-4.8,4.72-7.27,1.94-3.2,4.48-6,6.17-9.38a4.77,4.77,0,0,1,2.85-2.15l4.4,0,1.43,2a8.9,8.9,0,0,1-.56,1.31,4.64,4.64,0,0,0-.64,4.2,1.85,1.85,0,0,1-1.21,2.64,4.26,4.26,0,0,0-4.14-1.94c-.45,0-.78.14-.89.62a4.12,4.12,0,0,1-2.41,2.72c-.21.11-.52.15-.41.46s.48.12.68,0c1.38-.63,2.77-1.22,4.09-1.95,1-.57,1.9-.9,2.65.33.24,2.33.73,2.64,2.71,1.7l.86-.42A1.78,1.78,0,0,0,91,55.12a1.43,1.43,0,0,1,.7-1.64c1.5,2.72,2.83,5.53,4.5,8.14l.3-.16L92.46,53c.3-.27.94-.25.77-.91.38-.35.21-.82.22-1.23,0-1.68.08-3.37.12-5.06a45.59,45.59,0,0,0,5.72-.16,1.92,1.92,0,0,1,1.71.69c1.31,1.64,3.07,2.87,4.29,4.54,1,1.32,2,2.53,3,3.85a20.32,20.32,0,0,0,2.39,3.14,1.16,1.16,0,0,1,.33,1h-.47c-.18-.33-.35-.29-.52,0-.35.41-.19.71.23.94-.24.53-.07,1.29-.63,1.63a2.52,2.52,0,0,0-1,1.68,4.43,4.43,0,0,0-3.15-1.44c-.59-.32-.81-.95-1.18-1.46.57-.07.45-.4.33-.78a24.3,24.3,0,0,1-.67-2.64,29.94,29.94,0,0,0-1.13-3.26c-.07-.2-.18-.39-.39-.39s-.31.22-.29.42c.1,1.42-.27,2.86.23,4.26-.53,1.49-.11,3-.24,4.53C101,62.3,100,61.71,98.87,62c-1.51,0-3,0-4.55,0-.51,0-.83.09-.82.72s.36.6.79.6c1.24,0,2.48,0,3.71,0a5.57,5.57,0,0,0,0,1.64c.21.6-.09,1.63,1,1.66a3.23,3.23,0,0,1,3.06,1.5v1.08l-12.79.07c.12-1.06-.36-1.38-1.39-1.29a17.83,17.83,0,0,1-3.1,0C83.82,68,83.34,68.29,83.47,69.34Z"/><path class="cls-4" d="M13.06,81.12c.39-3,.79-5.91,1.14-8.87.08-.64.36-.77.93-.75,1,0,2,0,3,0,5.94.42,11.9.22,17.85.28,3.29,0,4.26.86,4.75,4.11a17.86,17.86,0,0,1,.21,2.74c-.12,8.11-.59,16.21-1,24.31H36.66L34.92,83.5a4.94,4.94,0,0,0-.07-1c-.13-.52.16-1.33-.43-1.51a7.19,7.19,0,0,0-2.37-.12c-.46,0-.3.49-.32.77-.31,5.43-.6,10.85-.92,16.28-.1,1.67-.27,3.33-.4,5H26.58L24.84,83.68c0-.24,0-.48-.05-.72-.3-2.11.21-1.88-2.07-1.77Z"/><path class="cls-2" d="M20.77,69.29c-4,.18-8,0-12-.16-.27-.34-.65-.24-1-.25a3.06,3.06,0,0,1-3-2C4,65.06,4.17,63.17,4,61.33c-.27-2.56-.36-5.14-.51-7.71,0-.32-.12-.54-.47-.57A22.1,22.1,0,0,1,4,49.2l.1,0-.1,0c0-.33-.12-.71.24-1l.1,0-.1,0c.16-2.35,1.28-4,3.47-4.4,1-.19,2.11.33,3.16.58a16.76,16.76,0,0,0,3.43.95c.05.23.09.46.14.69l2,6.45a44.33,44.33,0,0,0,2-4.42l.37-.36a4.76,4.76,0,0,1,4.82,4.59l-.06.1.06-.1c.35.25.2.63.24,1l-.06.1.06-.1c.35.25.2.63.24,1l-.06.1.06-.1a16.83,16.83,0,0,1,1,4.08h0c.17,1.6,1.09,3,1.27,4.63.09.8,1.24,1.3,2.1,1.68A3,3,0,0,1,25,65.94a17.2,17.2,0,0,0-4.24-.43c-.08-.65-.63-1.19-.47-1.91a1.21,1.21,0,0,0,.47-1.15,19.68,19.68,0,0,1,.21-6,2.66,2.66,0,0,0-.4-2.09,63,63,0,0,0-1,6.57c-1.05.57,0,1.72-.65,2.48-.2.23.24,1-.19,1.5-.11.12.05.34.22.31.68-.1,1.11.59,1.77.51ZM9.34,56.57H9v6.9c0,.32.12.54.47.58l3.49.43c-.09-.48-.38-.38-.59-.4-2-.17-2.32-.45-2.77-2.38a14.85,14.85,0,0,1-.13-2.49A12.34,12.34,0,0,0,9.34,56.57Z"/><path class="cls-2" d="M148.9,70.33c4,0,8,0,12,0,.78,0,1,.24,1,1,0,6.14,0,12.29,0,18.44a46.81,46.81,0,0,1-6.48.24l-.26,0-5.74,0c-.41,0-.73.12-.81-.61a6.21,6.21,0,0,1,.21-3.14,3.61,3.61,0,0,0,.08-1.88,19.28,19.28,0,0,1,.12-6.86c.2-1-.32-1.85-.35-2.79C148.6,73.25,148.84,71.8,148.9,70.33Z"/><path class="cls-1" d="M58.8,8.88c4.91,0,9.83,0,14.74,0,.93,0,1.28.24,1.22,1.21-.08,1.43-.05,2.88,0,4.31,0,.71-.19,1-.94,1q-15.15,0-30.32,0c-.66,0-.92-.21-.91-.9,0-1.51.06-3,0-4.55,0-.89.35-1.05,1.13-1.05C48.74,8.9,53.77,8.88,58.8,8.88Z"/><path class="cls-1" d="M66.61,24.48c-7.59,0-15.18,0-22.77,0-1,0-1.33-.28-1.27-1.28a28.79,28.79,0,0,0,0-3.83C42.5,18.31,42.82,18,44,18,51,18,58,18,65.05,18c2.87,0,5.75,0,8.62,0,.85,0,1.12.27,1.09,1.1-.06,1.44-.06,2.88,0,4.31,0,.83-.23,1.13-1.08,1.11-2.2-.06-4.4,0-6.59,0Z"/><path class="cls-5" d="M155.13,90l.26,0-.9,16.56c-.1,2-.19,4-.31,6,0,.38.23.93-.45,1.06a20.35,20.35,0,0,0-3.82.14.92.92,0,0,1-.51-1q0-10.67,0-21.34c1.7-.12,3.32-.75,5-.73A.61.61,0,0,0,155.13,90Z"/><path class="cls-6" d="M87.72,45.55l-4.4,0a2.53,2.53,0,0,0-.52-2c-.92-1.2-.18-3.18,1.41-3.84.65-.26.88-.5.89-1.22a2.53,2.53,0,0,1,2.66-2.63,1.39,1.39,0,0,0,1.12-.5,2.09,2.09,0,0,1,2.6-.64c1.18.7,2.41,1.31,3.53,2.11a1.63,1.63,0,0,0,.67.37,2.6,2.6,0,0,1,1.82,4A1.86,1.86,0,0,0,97.2,43c.38.94-.54,1.65-1,2.43h0l-2.66,0-.89-.12a1.58,1.58,0,0,1,.53-1.65c1-.93.7-2.2.59-3.39-.08-.85-.75-.89-1.36-1-.37-.1-.56-.45-.79-.91A2.44,2.44,0,0,1,89,40.15a1,1,0,0,0-1,.55.74.74,0,0,0,.38,1c.39.24.32.59.31.95,0,.91-.09,1.82-.14,2.74Z"/><path class="cls-7" d="M37.52,69.33H29.4c1-.47,2.09-.28,3.1-.74-.4-.44-.95,0-1.38-.41a5.06,5.06,0,0,1,.62-.43c.81-.34,1.16-.83.26-1.4-.63-.4-.05-.72-.08-1.07.16-.27.32-.55.47-.83.26-.49,0-.63-.44-.63-1.15,0-2.31,0-3.47,0-.28,0-.62.05-.63-.35s.35-.36.62-.36h3.72c.3,0,.61.07.86-.26a5.22,5.22,0,0,0-.35-5.93c-.24-.25-.51-.83-.94-.36s-1.31.41-1.1,1.35a14.91,14.91,0,0,1,.2,1.78.51.51,0,0,1-.45.61c-.34.05-.47-.19-.57-.49a7.2,7.2,0,0,0-.65-2.25,9.16,9.16,0,0,0-.85,2c-.16.36-.32.81-.84.66s-.34-.62-.25-1a8.83,8.83,0,0,1,.33-1c.21-.48.1-.75-.36-1.07-1.46-1-1.65-2.26-.5-3.64a.93.93,0,0,0,.06-1.4C26,51,25.26,49.82,24.44,48.74c-.48-.64-.18-.85.36-1.13s.77-.85,1.29,0c.74,1.23,1.61,2.38,2.4,3.59a1.35,1.35,0,0,0,1.44.74,2.07,2.07,0,0,1,2.52,1.68,1.7,1.7,0,0,0,.82.94,5.72,5.72,0,0,1,2.48,6.75c-.42,1.42-.91,2.81-1.37,4.21-.61,1.17-.61,1.19.65,1.18a3.19,3.19,0,0,1,1.79.4A3.18,3.18,0,0,1,37.52,69.33Z"/><path class="cls-5" d="M166.66,90.5h.9q-.63,7-1.27,14.06c-.25,2.74-.53,5.48-.79,8.22,0,.33.07.77-.48.8l-1.86,0c0-1-.08-1.91-.08-2.86q0-9,0-18.06c0-.52,0-1,.06-1.55a5.2,5.2,0,0,0,1.42,0C165.27,91,166.15,91.3,166.66,90.5Z"/><path class="cls-8" d="M3,53.05c.35,0,.45.25.47.57.15,2.57.24,5.15.51,7.71.19,1.84,0,3.73.72,5.51a3.06,3.06,0,0,0,3.05,2c.35,0,.73-.09,1,.25a1.75,1.75,0,0,0-.24,1.18,6,6,0,0,1-3.12.74,13.12,13.12,0,0,0-2.52.85c-.73.36-1.3,1.19-2.26,1h0c.14-3.45.62-6.86,1.07-10.27C2.08,59.47,2.55,56.26,3,53.05Z"/><path class="cls-3" d="M13.06,81.12l9.66.07v35.07c-.76-.5-.54-1-.54-1.43q0-15.06,0-30.12c0-1.65,0-1.65-1.63-1.65-1.08,0-2.16.07-3.24,0S16,83.37,16,84.41c0,8.56,0,17.12,0,25.68v6.11c-.76-.42-.51-1-.51-1.36q0-14.88,0-29.76c0-2,0-2-2-2h-.6A6.28,6.28,0,0,1,13.06,81.12Z"/><path class="cls-3" d="M116,19l12.72,0c.44,0,.79,0,1-.58s2.31-.61,2.52,0,.56.57,1,.57h10.43a.9.9,0,0,0,1-.59c.42-.83,1.35-.33,2-.37s.54.6.49,1,.39,1.45-.38,1.53-1.86.76-2.3-.63c-.13-.39-.55-.26-.85-.26H133.26c-.44,0-.8,0-1,.58s-2.31.62-2.53,0-.55-.58-1-.58l-12.72,0c-.86-.06-1.88-.79-2.42.55a1.26,1.26,0,0,1-.22-.06c0-.6-.49-.53-.88-.53H102.44c-.27,0-.66-.09-.74.22-.41,1.42-1.52.58-2.29.71-.39.07-.66-2.07-.3-2.44s2.32-.16,2.45.3.49.54.9.54h10.05c.23,0,.63,0,.66-.13.49-1.51,1.72-.63,2.6-.84-.26.9-1.25.52-1.86,1C114.71,19.5,115.36,18.91,116,19Zm-14.82-.38c-.88,0-1.41-.33-1.69.22a1.11,1.11,0,0,0,0,1.14c.35.38.83.3,1.54-.07C99.79,19.5,100.31,19.1,101.21,18.57Zm43.73.21c2,.34,1.2.78.25,1.18.68.22,1.2.41,1.48-.09a1.3,1.3,0,0,0,0-1.14C146.37,18.29,145.85,18.44,144.94,18.78Zm-13-.11c-.74.14-1.22-.15-1.83.49C130.79,19.14,131.27,19.39,131.94,18.67Zm-1.61,1a1.05,1.05,0,0,0,1.29,0A1,1,0,0,0,130.33,19.71Z"/><path class="cls-9" d="M153,46.65l-1-2.73c0-.62.13-1.26-.89-1.29-.62,0-.65-.74-.71-1.22-.15-1.22-.22-2.44-.33-3.66l2-.28c1.17-.15,2.24-.13,2.17,1.51,0,0,.14,0,.25.08.06-.14.13-.27.19-.41s.15-.71.52-.73.41.5.55.8,0,.91.53,1.11c0,1,0,1.93,0,2.89l-1.47,3.91C154.24,46.65,153.61,47,153,46.65Z"/><path class="cls-9" d="M31.92,65.29c0,.35-.55.67.08,1.07.9.57.55,1.06-.26,1.4a5.06,5.06,0,0,0-.62.43c.43.38,1,0,1.38.41-1,.46-2.15.27-3.1.74l-8.63,0c0-1.18,0-2.36-.07-3.54l0-.24a17.2,17.2,0,0,1,4.24.43,3,3,0,0,0,3.46-1.31l.24-.11.51.31c0,.53-.76,1.1-.26,1.49s1-.25,1.43-.58a1.07,1.07,0,0,0,.77-.42Z"/><path class="cls-6" d="M26.58,103h3.83c-.07,1-.13,2-.19,3-.13,1.86-.43,1.51,1.38,1.78.79.11,1.59.17,2.37.31a5.46,5.46,0,0,1,1.37.43c.5.24,1.08.59.93,1.23s-.83.49-1.33.5c-2.15,0-4.31,0-6.47,0-.78,0-1.18-.27-1.3-1.06A45.82,45.82,0,0,1,26.58,103Z"/><path class="cls-9" d="M69.69,66.76l.09,1.16c0,.46,0,.91,0,1.37H54.84c0-.6,0-1.19,0-1.78s.21-.79.74-.79H67.8Z"/><path class="cls-9" d="M18.81,47.73l-.37.36a.56.56,0,0,0-.65.16c-.76.65-1.24.43-1.78-.35a4.7,4.7,0,0,0-1.62-1.84c-.05-.23-.09-.46-.14-.69l.09-2.28c1.24.06,1-.65.75-1.4-.15-.44-.17-.88.29-1.16s.76,0,1,.38.62.26.94.16c.64-.2,1.28-.42,1.91-.66a1.2,1.2,0,0,1,1.58.38c-.16,1.44-.35,2.89-.49,4.34-.05.51-.19,1-.68,1.14C18.71,46.48,18.8,47.1,18.81,47.73Z"/><path class="cls-10" d="M20.77,40.79a1.2,1.2,0,0,0-1.58-.38c-.63.24-1.27.46-1.91.66-.32.1-.67.31-.94-.16s-.47-.68-1-.38-.44.72-.29,1.16c.25.75.49,1.46-.75,1.4a1.16,1.16,0,0,1-.58-1.22,1.14,1.14,0,0,0-.12-.91c-.64-.85-.37-1.49.54-1.89a.94.94,0,0,0,.49-.63,2.19,2.19,0,0,1,.4-.72,5.92,5.92,0,0,1,4.91-1A2.25,2.25,0,0,0,21,37a1.68,1.68,0,0,1,1.93,1.54,1,1,0,0,0,.29.62,1.15,1.15,0,0,1,0,1.71,1.23,1.23,0,0,1-1.71.3C21.29,41,21,40.9,20.77,40.79Z"/><path class="cls-9" d="M37.52,69.33a3.18,3.18,0,0,0-.7-2.24c0-.43.07-.85.1-1.28l2.26,0c1,0,2,.07,2.68-1a1.33,1.33,0,0,1,2.25.27c.13.28.31.1.47.14.49.16,1.79-.89,1.26.83,1.17,1,.28,2.18.25,3.28Z"/><path class="cls-6" d="M36.66,103h3.22c0,1.28,0,2.56-.08,3.83-.08.93.25,1.17,1.11,1.21a27.41,27.41,0,0,1,3,.38,2.59,2.59,0,0,1,1.31.55c.25.22.47.45.34.82a.65.65,0,0,1-.65.45c-2.28,0-4.55,0-6.83,0-.55,0-.71-.46-.78-.92A38,38,0,0,1,36.66,103Z"/><path class="cls-11" d="M119.91,69.29l-4.14,0c0-1.51-.07-3-.1-4.52,0-.56.07-1.12.09-1.68a1.67,1.67,0,0,1,.71-1.54c.65-.42.64-1.16.78-1.81l1.11,0a2.58,2.58,0,0,0,.93,2,2.08,2.08,0,0,1,.6,1.74C119.89,65.41,119.9,67.35,119.91,69.29Zm-.52-5.4c-.77.11-1.84-.46-2.24.21a3.1,3.1,0,0,0,0,2.77c.38.72,1.44.16,2.32.36-.72-.74-2.27.59-2.23-1.23,0-.59-.26-1.31.15-1.74S118.74,64.26,119.39,63.89Z"/><path class="cls-8" d="M169.07,70.32a1.7,1.7,0,0,1-1.18-.42c-3.2-2.09-6.15-4.54-9.61-6.26a8.37,8.37,0,0,1-2.49-2.38c1.5.56,3,1.09,4.49,1.69,2.84,1.14,5.8,2,8.56,3.3C168.76,67.61,169.21,69,169.07,70.32Z"/><path class="cls-5" d="M161.89,90.09a1.88,1.88,0,0,1,.21,1.16c0,7.06,0,14.13,0,21.19,0,.38.12.81-.27,1.11l-.61.19c-.12-.1-.25-.27-.29,0h0c-.61-.1-.81-.43-.77-1.07.22-3.71.38-7.42.59-11.12.19-3.51.41-7,.63-10.52C161.41,90.68,161.14,90.11,161.89,90.09Z"/><path class="cls-12" d="M130.77,27.66A2.76,2.76,0,0,1,127.83,25c0-1.12,2.13-3.64,3.09-3.61.79,0,2.76,2.49,2.78,3.48A2.75,2.75,0,0,1,130.77,27.66Zm1.94-2.94c-.06-.13-.08-.26-.16-.33-.28-.29-.5,0-.73.11-.72.27-1.43,1.25-2.16,0-.1-.17-.29-.09-.42,0s-.18.29-.09.5c.47,1.1,1,1.26,2.18.59A3.46,3.46,0,0,0,132.71,24.72Z"/><path class="cls-13" d="M156.31,39.83c-.54-.2-.35-.75-.53-1.11s-.07-.81-.55-.8-.4.44-.52.73-.13.27-.19.41c-.11,0-.25-.06-.25-.08.07-1.64-1-1.66-2.17-1.51l-2,.28c-.6,0-1.43.68-1.72-.35a1.49,1.49,0,0,1,1.21-1.89,15.32,15.32,0,0,1,5.75-.74c.71.06,1.12.35,1.11,1.09C156.44,37.18,156.9,38.52,156.31,39.83Z"/><path class="cls-10" d="M92.65,45.39l.89.12,0,.32c0,1.69-.07,3.38-.12,5.06,0,.41.16.88-.22,1.23L92.94,52c.37-.78-.3-1.31-.56-1.86a2,2,0,0,0-1.59-1c-.35,0-.74.75-1.1.47s0-.92,0-1.41c0-.23.13-.49.06-.7-.23-.69-.38,0-.57.06l-1.43-2,.88-.15Z"/><path class="cls-2" d="M115.67,64.79c0,1.5.06,3,.1,4.52h-2.88c0-1.87,0-3.74,0-5.61a2.25,2.25,0,0,0-.57-1.89,3,3,0,0,1-1.07-2l.3-.08c.21.09.56.13.63.28.76,1.73,2.41,2.88,3,4.7C115.28,64.75,115.53,64.75,115.67,64.79Z"/><path class="cls-3" d="M66.61,24.48h.48V64.3l-.5,0Q66.6,44.4,66.61,24.48Z"/><path class="cls-6" d="M149.91,113.72a20.35,20.35,0,0,1,3.82-.14c.05,2.58.05,2.58-2.54,2.58h-6.45c-.21,0-.53.1-.61-.19s.26-.46.5-.52c.81-.21,1.64-.33,2.44-.55A12.14,12.14,0,0,0,149.91,113.72Z"/><path class="cls-3" d="M7.29,84.91H7.8V116H7.29Z"/><path class="cls-3" d="M2.73,84.9l.51,0v31.2c-.73-.23-.52-.7-.52-1Q2.72,100,2.73,84.9Z"/><path class="cls-9" d="M128,66.52a10.47,10.47,0,0,1,1.31,2.74l-.2,0a2,2,0,0,0-1.23-.21,11.38,11.38,0,0,1-2.29-.51,1.48,1.48,0,0,0-1.88.45l-.47.22c-.42-.41,0-.62.21-.89C124.45,66.59,125.84,65.65,128,66.52Z"/><path class="cls-6" d="M161.21,113.74l.61-.19.09,2.38c-.59.48-1.28.19-1.92.21-1.34.06-2.69,0-4,0-.22,0-.54.09-.58-.24s.24-.39.46-.45c.46-.13.92-.22,1.39-.32a10.13,10.13,0,0,0,3.72-1.37h0Z"/><path class="cls-3" d="M39.33,19.1c.19.31-.08.44-.23.59-1.31,1.3-2.64,2.57-3.93,3.87-.42.42-.72.55-1.13,0s-1-1.23-1.53-1.84c-.14-.17-.25-.36,0-.49s.3,0,.43.09.16.18.24.27c1.47,1.65,1.46,1.63,3,.13.95-.91,1.94-1.78,2.92-2.65C39.15,19,39.26,19.08,39.33,19.1Z"/><path class="cls-10" d="M155.13,90a.61.61,0,0,1-.68.66c-1.72,0-3.34.61-5,.73l0-1.43Z"/><path class="cls-6" d="M163.16,113.63l1.86,0c0,.27,0,.55,0,.82,0,1.83,0,1.83-1.89,1.72C163.15,115.29,163.15,114.46,163.16,113.63Z"/><path class="cls-10" d="M57.42,66.72H55.56c0-.43,0-.87,0-1.3-.07-.75.09-1.11,1-1.12s.89.5.87,1.12C57.41,65.85,57.42,66.28,57.42,66.72Z"/><path class="cls-10" d="M66.59,64.32l.5,0c.42,0,.75.12.71.67s0,1.17,0,1.75H66c0-.54,0-1.09,0-1.64S66.07,64.31,66.59,64.32Z"/><path class="cls-10" d="M64.63,66.72H62.77c0-.44,0-.88,0-1.31-.05-.69,0-1.09.93-1.09s1,.39.93,1.09C64.6,65.84,64.63,66.28,64.63,66.72Z"/><path class="cls-10" d="M61.15,66.72H59.36c0-.48,0-1,0-1.44s.07-1,.82-1,1,.2,1,1A11.55,11.55,0,0,0,61.15,66.72Z"/><path class="cls-2" d="M36.92,65.81c0,.43-.06.85-.1,1.28a3.19,3.19,0,0,0-1.79-.4c-1.26,0-1.26,0-.65-1.18a3.55,3.55,0,0,0,1.29-.19C36.17,65.2,36.68,65.21,36.92,65.81Z"/><path class="cls-8" d="M113.38,20.17a1.26,1.26,0,0,0,.22.06c.54-1.34,1.56-.61,2.42-.55,0,.36.15,1-.43.92C114.85,20.54,113.94,21.14,113.38,20.17Z"/><path class="cls-13" d="M111.58,59.69l-.3.08-1,0c-.42-.23-.58-.53-.23-.94l.52,0H111C111.45,59,111.93,59,111.58,59.69Z"/><path class="cls-13" d="M118.36,59.74l-1.11,0c-.3-.19-.56-.52-.18-.73a1.72,1.72,0,0,1,1.5,0C119,59.25,118.69,59.58,118.36,59.74Z"/><path class="cls-8" d="M31.13,65.32a1.07,1.07,0,0,1-.77.42,2.21,2.21,0,0,0-1.17-.91l-.51-.31c.48-.76,1-.34,1.47,0S30.93,64.9,31.13,65.32Z"/><path class="cls-8" d="M116,19c-.67,0-1.32.55-2.12,0,.61-.44,1.6-.06,1.86-1C116.18,18.24,116,18.63,116,19Z"/><path class="cls-2" d="M123.2,69.26l.47-.22c0,.09,0,.18,0,.26l-.52,0Z"/><path class="cls-2" d="M167.39,49c.16.08.17.16,0,.24h0a1.93,1.93,0,0,0,0-.24Z"/><polygon class="cls-10" points="96.2 45.46 96.25 45.45 96.24 45.53 96.2 45.46"/><path class="cls-2" d="M25.07,58.32l.05-.1-.05.1Z"/><path class="cls-1" d="M.61,73c1,.14,1.53-.69,2.26-1a13.12,13.12,0,0,1,2.52-.85.87.87,0,0,1-.53.94c-1.08.51-2.12,1.1-3.19,1.61C1,73.91.62,73.73.61,73Z"/><path class="cls-7" d="M144.32,63.37a13.29,13.29,0,0,1,1.26-5.72l.71-1.18a13.26,13.26,0,0,1,3.05-2.26,1.33,1.33,0,0,0,.68-.91,12.72,12.72,0,0,0,.64-1.92c.16-.91.53-1,1.37-.76s.92.61.71,1.33-.33,1.72-.59,2.55a1.1,1.1,0,0,0,.44,1.34,3.76,3.76,0,0,1,.08,2.54c-.49.52-1.06,1-.65,1.83a.59.59,0,0,1-.4.86c-.45.15-.65-.15-.77-.52s-.07-.79-.54-.83-.5.45-.67.74-.42.6-.84.45a.52.52,0,0,1-.34-.77c.61-.93,0-1.52-.53-2.29a3.72,3.72,0,0,0-.93,1.92,4.2,4.2,0,0,0-.24,1.27c-.14,1,.1,1.41,1.24,1.34,1.9-.12,3.81,0,5.72,0V63c-2,0-4,0-6,0-.33,0-.84-.19-.93.26a5.07,5.07,0,0,0,.31,2.81c.21.55,1,.19,1.53.21l3,0c1.82,0,1.55-.17,1.57,1.63,0,.48,0,1,0,1.44h-8.92C144.25,67.36,144.65,65.36,144.32,63.37Z"/><path class="cls-14" d="M132.34,92.85H113.4l0-.24a13.29,13.29,0,0,0,0-1.67c-.14-1,.33-1.29,1.21-1.18h1.7l3.36,0h5.06l1.88,0h4.56c.92-.12,1.33.21,1.21,1.19a11.64,11.64,0,0,0,0,1.67A1.79,1.79,0,0,0,132.34,92.85Z"/><path class="cls-14" d="M107.86,92.85h-19l0-.27a17,17,0,0,0,0-1.89c-.06-.76.3-1,1-.92a2,2,0,0,0,2,0l3.31,0A5.44,5.44,0,0,0,97,89.74l3.13,0a5.22,5.22,0,0,0,1.93,0h4.51c.82-.08,1.13.27,1.08,1.1a9.64,9.64,0,0,0,.18,1.76C107.87,92.71,107.86,92.78,107.86,92.85Z"/><path class="cls-14" d="M132.1,82.3H113.39c0-.09,0-.18,0-.27a9.47,9.47,0,0,0,0-1.19c-.13-1,.15-1.61,1.29-1.52h1.55l3.36.11h7.07l2.54,0h2c.6-.07,1,.07,1,.8a14.79,14.79,0,0,0,.18,1.87Z"/><path class="cls-2" d="M106.9,82.3h-4.79l0-.25c0-.8.07-1.6,0-2.39a3.5,3.5,0,0,1,1.31-3.2c1-.86,1.12-1.58,2.29,0a4.68,4.68,0,0,1,1.23,3.2c0,.8,0,1.59,0,2.39Z"/><path class="cls-2" d="M68.49,113H63.72c0-.15,0-.3,0-.45.14-2-.71-4.24,1.61-5.59,0,0,.07-.14.09-.22.07-.4.26-.65.71-.64s.61.25.72.64a1,1,0,0,0,.41.57c1.24.65,1.36,1.74,1.27,3,0,.76,0,1.52,0,2.28Z"/><path class="cls-2" d="M75.21,113H70.44l0-.47c0-.68,0-1.36,0-2a4.21,4.21,0,0,1,1.19-3.25c1.16-1.35,1.39-1,2.43,0a3.53,3.53,0,0,1,1.21,2.9c0,.8,0,1.6,0,2.4Z"/><path class="cls-2" d="M101.14,82.3H96.35l0-.24c0-.24,0-.48,0-.72.05-1.85-.53-3.91,1.71-5,.1,0,.16-.27.18-.42,0-.33.19-.51.53-.51a.6.6,0,0,1,.68.54.82.82,0,0,0,.44.67c1.34.64,1.34,1.81,1.28,3,0,.8,0,1.59,0,2.39Z"/><path class="cls-15" d="M110.23,59.82l1,0a3,3,0,0,0,1.07,2,2.25,2.25,0,0,1,.57,1.89c0,1.87,0,3.74,0,5.61h-4.23l-.09-4.74,0-1.43a2.52,2.52,0,0,1,1-1.68C110.16,61.11,110,60.35,110.23,59.82Zm.53,7.15c1.9,0,1.69.2,1.68-1.5,0-1.88.23-1.65-1.51-1.65-2.1,0-1.86-.28-1.86,1.54S108.86,66.94,110.76,67Z"/><path class="cls-1" d="M75.21,113v-.43c2.64,0,5.27,0,7.91,0,.69,0,1-.17,1-.93,0-2,0-4.08,0-6.11,0-.65-.16-.94-.86-.93q-9.95,0-19.89,0c-.7,0-.89.26-.88.91,0,2,.06,4,0,6,0,1,.4,1.17,1.22,1,0,.15,0,.3,0,.45-1.67.08-1.67.08-1.67-1.58,0-2,0-4.07,0-6.1,0-.81.25-1.15,1.1-1.15q10.17,0,20.35,0c.86,0,1.1.37,1.09,1.16,0,2.19,0,4.39,0,6.58,0,.81-.25,1.16-1.11,1.14C80.72,113,78,113,75.21,113Z"/><path class="cls-7" d="M139.63,65.53c-.28,1.18.25,2.44-.32,3.6-1.36.46-2.76.11-4.14.22-.66-.61-.33-1.42-.46-2.14.14-2,.14-2.06,2.18-2C137.8,65.25,138.79,64.84,139.63,65.53Z"/><path class="cls-1" d="M97.87,113c-3.31,0-6.63,0-10,0-.85,0-1.22-.15-1.2-1.11.07-2.19,0-4.39,0-6.59,0-.72.21-1,1-1q10.2,0,20.4,0c.8,0,1,.28,1,1,0,2.16,0,4.32,0,6.48,0,.88-.22,1.18-1.14,1.17C104.59,113,101.23,113,97.87,113Zm.09-8.4c-3.31,0-6.63,0-9.95,0-.78,0-1,.24-1,1,0,2,0,4,0,6,0,.92.36,1.16,1.21,1.16q9.72,0,19.43,0c1,0,1.23-.38,1.21-1.28,0-1.92-.06-3.84,0-5.76,0-.9-.26-1.16-1.15-1.14C104.44,104.67,101.2,104.64,98,104.64Z"/><path class="cls-1" d="M96.33,82.06l0,.24c-2.88,0-5.76,0-8.63,0-.71,0-1-.19-1-1,0-2.28,0-4.56,0-6.84,0-.69.26-.89.92-.89q10.26,0,20.52,0c.78,0,.92.34.91,1,0,2.12-.07,4.24,0,6.36,0,1.09-.33,1.46-1.36,1.3a7.77,7.77,0,0,0-.84,0,2.51,2.51,0,0,0,0-.27c1.87.11,1.87.11,1.87-1.78s0-3.52,0-5.28c0-.73-.15-1.07-1-1.06q-10,0-19.91,0c-.74,0-1,.25-1,1,0,2,0,4.08,0,6.11,0,.83.23,1.12,1.08,1.1C90.82,82,93.58,82.06,96.33,82.06Z"/><path class="cls-2" d="M108.57,64.56l.09,4.74h-2.25a2,2,0,0,0-.5-1.15c.49-.4-.47-.42-.2-.79.47-.63.15-1.33.16-2,.23-.77,1.37-.19,1.54-1A1.7,1.7,0,0,0,108.57,64.56Z"/><path class="cls-1" d="M88.86,92.59l0,.27c-2.17.07-2.17.07-2.17-2.1,0-1.87,0-3.75,0-5.62,0-.66.19-.92.88-.92q10.29,0,20.58,0c.7,0,.89.28.88.92,0,2.2-.06,4.39,0,6.58,0,1-.31,1.32-1.23,1.13,0-.07,0-.14,0-.22.73.1,1-.21,1-.95,0-2-.06-4,0-6,0-.92-.21-1.25-1.19-1.23-3.48.06-7,0-10.43,0H88c-.49,0-1-.06-1,.69,0,2.27,0,4.55,0,6.83,0,.46.23.65.67.63Z"/><path class="cls-1" d="M113.35,82l0,.27c-1.69,0-1.69,0-1.69-1.62,0-2,0-4.07,0-6.11,0-.66.21-.91.89-.91,6.87,0,13.74,0,20.61,0,.42,0,.83,0,.83.59,0,2.56,0,5.11-.07,7.67,0,.06-.09.12-.13.19l-.06-.07c0-2.36,0-4.71,0-7.07,0-.73-.13-1.08-1-1.07q-9.94,0-19.9,0c-.72,0-1,.21-1,1,0,2,.08,3.92,0,5.87C111.88,81.88,112.24,82.29,113.35,82Z"/><path class="cls-1" d="M113.37,92.61l0,.24c-1.7.07-1.7.07-1.7-1.61,0-2,0-4.07,0-6.11,0-.66.2-.91.89-.91,6.87,0,13.74,0,20.61,0,.43,0,.83,0,.83.59q0,3.84-.07,7.66c0,.07-.09.13-.13.2l-.07-.07c0-2.36,0-4.72,0-7.07,0-.74-.15-1.08-1-1.07q-9.95,0-19.9,0c-.73,0-1,.23-1,1,0,2,.09,3.92,0,5.88C111.86,92.49,112.32,92.8,113.37,92.61Z"/><path class="cls-7" d="M76.15,69.36c-.16-1,.25-1.4,1.31-1.32A31.45,31.45,0,0,0,80.68,68l1.3.16c0,.41,0,.81,0,1.21Z"/><path class="cls-10" d="M83.47,69.34c-.13-1,.35-1.37,1.37-1.28a17.83,17.83,0,0,0,3.1,0c1-.09,1.51.23,1.39,1.29Z"/><path class="cls-10" d="M166.66,90.5c-.51.8-1.39.47-2.1.67a5.2,5.2,0,0,1-1.42,0l-.06-.89C164.25,90.67,165.47,90.33,166.66,90.5Z"/><path class="cls-1" d="M70.41,112.53l0,.47h-2c0-.15,0-.3,0-.45Z"/><path class="cls-1" d="M132.1,82.3l.25-.22,1.41,0,.06.07C133.28,82.51,132.68,82.26,132.1,82.3Z"/><path class="cls-1" d="M132.34,92.85a1.79,1.79,0,0,1,0-.23h1.39l.07.07C133.36,93,132.84,92.84,132.34,92.85Z"/><path class="cls-1" d="M101.14,82.3a2.51,2.51,0,0,0,0-.27l.91,0,0,.25Z"/><path class="cls-8" d="M159.4,58.86c1.19-.4,2.41-.63,3.13-1.55s.08-2.23.44-3.58c.71,1.44,1.35,2.68,1.93,4,.33.71,1.22,1.6.84,2.1s-1.53-.07-2.32-.19C162.07,59.38,160.74,59.11,159.4,58.86Z"/><path class="cls-9" d="M152.67,58.38a3.76,3.76,0,0,0-.08-2.54c0-.23-.07-.58,0-.67s.41.09.54.28c.34.49.69,1,1,1.5.47.8-.39,1.1-.68,1.59S152.89,58.71,152.67,58.38Z"/><path class="cls-5" d="M153,46.65c.62.33,1.25,0,1.87,0-.31.94-.62,1.88-1,3A13.06,13.06,0,0,1,153,46.65Z"/><path class="cls-1" d="M146.29,56.47l-.71,1.18c-.08-.22-.25-.44-.24-.66a16,16,0,0,0-.12-4.79A19.36,19.36,0,0,1,146.29,56.47Z"/><path class="cls-7" d="M150.47,50.29a1.08,1.08,0,0,1-.2.06.66.66,0,0,1-.19-.09.82.82,0,0,1,.19-.06A.88.88,0,0,1,150.47,50.29Z"/><path class="cls-16" d="M173.39,63.36l-.06.1.06-.1Z"/><path class="cls-16" d="M167.39,49a1.93,1.93,0,0,1,0,.24,1.42,1.42,0,0,1-.08-.18S167.36,49,167.39,49Z"/><path class="cls-16" d="M143.15,53.28l.1,0-.1,0Z"/><path class="cls-16" d="M141.23,58.56l.1,0-.1,0Z"/><path class="cls-16" d="M142.43,55.2l.1,0-.1,0Z"/><path class="cls-9" d="M89.15,47.54c.19,0,.34-.75.57-.06.07.21,0,.47-.06.7,0,.49-.37,1.11,0,1.41s.75-.49,1.1-.47a2,2,0,0,1,1.59,1c.26.55.93,1.08.56,1.86l.29.17c.17.66-.47.64-.77.91a.92.92,0,0,0-.73.45,1.43,1.43,0,0,0-.7,1.64,1.78,1.78,0,0,1-1.15,2.12l-.86.42c-2,.94-2.47.63-2.71-1.7l.43-.27A1.85,1.85,0,0,0,88,53.05a4.64,4.64,0,0,1,.64-4.2A8.9,8.9,0,0,0,89.15,47.54Z"/><path class="cls-9" d="M105.91,68.14l-3.8.06a3.23,3.23,0,0,0-3.06-1.5c-1.09,0-.79-1.06-1-1.66a5.57,5.57,0,0,1,0-1.64c1.63-.51,1.63-.51.87-1.41,1.13-.28,2.15.31,3.24.38.59.22,1.27.39,1.35,1.16a1.82,1.82,0,0,0,2.41,1.82c0,.67.31,1.37-.16,2C105.44,67.72,106.4,67.74,105.91,68.14Z"/><path class="cls-8" d="M82,68.15,80.68,68c.25-1.24-.33-2.44-.15-3.67a33.44,33.44,0,0,1,7.17-3.6h0c.29,1.92-1.18,3-2.2,4.16A37.85,37.85,0,0,1,82,68.15Z"/><path class="cls-8" d="M86.74,55.69l-.43.27c-.75-1.23-1.62-.9-2.65-.33-1.32.73-2.71,1.32-4.09,1.95-.2.09-.51.42-.68,0s.2-.35.41-.46a4.12,4.12,0,0,0,2.41-2.72c.11-.48.44-.59.89-.62A4.26,4.26,0,0,1,86.74,55.69Z"/><path class="cls-8" d="M104.27,60.23l-1.92-2.39c-.5-1.4-.13-2.84-.23-4.26,0-.2,0-.43.29-.42s.32.19.39.39a29.94,29.94,0,0,1,1.13,3.26,24.3,24.3,0,0,0,.67,2.64C104.72,59.83,104.84,60.16,104.27,60.23Z"/><path class="cls-10" d="M98.87,62c.76.9.76.9-.87,1.41-1.23,0-2.47,0-3.71,0-.43,0-.77,0-.79-.6s.31-.72.82-.72C95.84,62,97.36,62,98.87,62Z"/><path class="cls-10" d="M91.73,53.48a.92.92,0,0,1,.73-.45l4.07,8.43-.3.16C94.56,59,93.23,56.2,91.73,53.48Z"/><path class="cls-8" d="M107.41,64.3l-2-2.62a4.48,4.48,0,0,1,3.15,1.45l0,1.43A1.7,1.7,0,0,1,107.41,64.3Z"/><path class="cls-16" d="M110.52,58.86l-.52,0C110.17,58.57,110.34,58.53,110.52,58.86Z"/><path class="cls-8" d="M87.7,60.72l.11-.1-.1.1Z"/><path class="cls-12" d="M14.39,46.06A4.7,4.7,0,0,1,16,47.9c.54.78,1,1,1.78.35a.56.56,0,0,1,.65-.16,44.33,44.33,0,0,1-2,4.42Z"/><path class="cls-8" d="M19.55,61a63,63,0,0,1,1-6.57,2.66,2.66,0,0,1,.4,2.09,19.68,19.68,0,0,0-.21,6,1.21,1.21,0,0,1-.47,1.15C19.63,62.83,19.9,61.81,19.55,61Z"/><path class="cls-8" d="M9.34,56.57a12.34,12.34,0,0,1,.12,2.65,14.85,14.85,0,0,0,.13,2.49c.45,1.93.74,2.21,2.77,2.38.21,0,.5-.08.59.4l-3.49-.43C9.11,64,9,63.8,9,63.48v-6.9Z"/><path class="cls-16" d="M4.19,48.24l.1,0-.1,0Z"/><path class="cls-16" d="M4,49.2l.1,0-.1,0Z"/><path class="cls-16" d="M24.11,54.24l-.06.1.06-.1Z"/><path class="cls-16" d="M23.87,53.28l-.06.1.06-.1Z"/><path class="cls-16" d="M23.63,52.32l-.06.1.06-.1Z"/><path class="cls-9" d="M92.65,45.39H88.6c.05-.92.09-1.83.14-2.74,0-.36.08-.71-.31-.95a.74.74,0,0,1-.38-1,1,1,0,0,1,1-.55,2.44,2.44,0,0,0,2.59-1.75c.23.46.42.81.79.91.61.15,1.28.19,1.36,1,.11,1.19.37,2.46-.59,3.39A1.58,1.58,0,0,0,92.65,45.39ZM91.3,43l-.09,0,.11,0c.47.61,1,.55,1.57.11Z"/><path class="cls-2" d="M101.21,18.57c-.9.53-1.42.93-.11,1.29-.71.37-1.19.45-1.54.07a1.11,1.11,0,0,1,0-1.14C99.8,18.24,100.33,18.53,101.21,18.57Z"/><path class="cls-2" d="M144.94,18.78c.91-.34,1.43-.49,1.72-.05a1.3,1.3,0,0,1,0,1.14c-.28.5-.8.31-1.48.09C146.14,19.56,147,19.12,144.94,18.78Z"/><path class="cls-8" d="M131.94,18.67c-.67.72-1.15.47-1.83.49C130.72,18.52,131.2,18.81,131.94,18.67Z"/><path class="cls-8" d="M130.33,19.71a1,1,0,0,1,1.29,0A1.05,1.05,0,0,1,130.33,19.71Z"/><path class="cls-2" d="M29.19,64.83a2.21,2.21,0,0,1,1.17.91c-.44.33-1,.89-1.43.58S29.17,65.36,29.19,64.83Z"/><path class="cls-2" d="M119.39,63.89c-.65.37-1.51-.15-2,.37s-.14,1.15-.15,1.74c0,1.82,1.51.49,2.23,1.23-.88-.2-1.94.36-2.32-.36a3.1,3.1,0,0,1,0-2.77C117.55,63.43,118.62,64,119.39,63.89Z"/><path class="cls-16" d="M161.21,113.74l-.29,0C161,113.47,161.09,113.64,161.21,113.74Z"/><path class="cls-14" d="M132.71,24.72a3.46,3.46,0,0,1-1.38.86c-1.21.67-1.71.51-2.18-.59-.09-.21-.11-.37.09-.5s.32-.16.42,0c.73,1.25,1.44.27,2.16,0,.23-.09.45-.4.73-.11C132.63,24.46,132.65,24.59,132.71,24.72Z"/><path class="cls-3" d="M133.75,92.61h-1.39a11.64,11.64,0,0,1,0-1.67c.12-1-.29-1.31-1.21-1.19,0-.88,0-1.76,0-2.64,0-.58-.24-.77-.79-.75s-1,0-.94.74c0,.88,0,1.76,0,2.64h-2.83c0-.92,0-1.83,0-2.74,0-.74-.32-.86-.94-.85s-1,.07-1,.82c0,.92,0,1.83,0,2.75h-3.18c0-1,0-1.92,0-2.87,0-.74-.46-.7-1-.7s-1,0-1,.71c0,1,0,1.91,0,2.86l-3.36,0c0-1,0-1.91,0-2.87,0-.7-.4-.73-.92-.74s-.83.14-.81.74c0,.95,0,1.9,0,2.86-.88-.11-1.35.18-1.21,1.18a13.29,13.29,0,0,1,0,1.67c-1.05.19-1.51-.12-1.44-1.3.1-2,0-3.92,0-5.88,0-.73.23-1,1-1q10,0,19.9,0c.84,0,1,.33,1,1.07C133.75,87.89,133.76,90.25,133.75,92.61Z"/><path class="cls-10" d="M119.64,89.74c0-.95,0-1.91,0-2.86,0-.73.44-.71,1-.71s1,0,1,.7c0,.95,0,1.91,0,2.87Z"/><path class="cls-10" d="M124.7,89.73c0-.92,0-1.83,0-2.75,0-.75.37-.82,1-.82s1,.11.94.85c0,.91,0,1.82,0,2.74Z"/><path class="cls-10" d="M114.58,89.76c0-1,0-1.91,0-2.86,0-.6.28-.74.81-.74s1,0,.92.74c0,1,0,1.91,0,2.87Z"/><path class="cls-16" d="M129.41,89.75c0-.88,0-1.76,0-2.64,0-.71.41-.73.94-.74s.81.17.79.75c0,.88,0,1.76,0,2.64Z"/><path class="cls-3" d="M88.86,92.59l-1.19,0c-.44,0-.67-.17-.67-.63,0-2.28,0-4.56,0-6.83,0-.75.49-.69,1-.69h9.23c3.48,0,7,0,10.43,0,1,0,1.22.31,1.19,1.23-.06,2,0,4,0,6,0,.74-.23,1-1,.95a9.64,9.64,0,0,1-.18-1.76c0-.83-.26-1.18-1.08-1.1,0-.79,0-1.59,0-2.38,0-.64-.07-1-.88-1s-1.05.26-1,1,0,1.59,0,2.38H102.1c0-1,0-1.91,0-2.87,0-.74-.46-.7-1-.71s-1,0-.94.72c0,1,0,1.92,0,2.87l-3.13,0c0-.95,0-1.9,0-2.85,0-.77-.59-.69-1.11-.71s-.79.19-.78.76c0,1,0,1.9,0,2.85l-3.31,0c0-.91,0-1.83,0-2.74,0-.59-.16-.87-.81-.86s-1.1.07-1.09.88,0,1.82-.05,2.73c-.68-.07-1,.16-1,.92A17,17,0,0,1,88.86,92.59Z"/><path class="cls-10" d="M89.85,89.78c0-.91.07-1.82.05-2.73s.47-.86,1.09-.88.83.27.81.86c0,.91,0,1.83,0,2.74A2,2,0,0,1,89.85,89.78Z"/><path class="cls-10" d="M100.17,89.77c0-1,0-1.91,0-2.87,0-.73.43-.72.94-.72s1,0,1,.71c0,1,0,1.91,0,2.87A5.22,5.22,0,0,1,100.17,89.77Z"/><path class="cls-10" d="M95.11,89.79c0-1,0-1.9,0-2.85,0-.57.23-.78.78-.76s1.09-.06,1.11.71c0,1,0,1.9,0,2.85A5.44,5.44,0,0,1,95.11,89.79Z"/><path class="cls-16" d="M104.79,89.77c0-.79,0-1.59,0-2.38s.21-1,1-1,.91.38.88,1c0,.79,0,1.59,0,2.38Z"/><path class="cls-3" d="M133.76,82.05l-1.41,0a14.79,14.79,0,0,1-.18-1.87c0-.73-.37-.87-1-.79,0-1-.08-1.9-.06-2.85,0-.79-.47-.76-1-.77s-.91.09-.9.76c0,1,0,1.9-.05,2.85l-2.54,0c-.08-1-.21-2-.22-3,0-.7-.29-.87-.93-.88s-.81.26-.8.86c0,1,0,2-.06,3h-3.23c0-1-.07-2,0-3.08,0-.71-.41-.72-.93-.73s-.8.14-.8.73c0,1,0,2.06,0,3.08l-3.36-.11c0-1,0-1.91.08-2.86,0-.6-.17-.86-.81-.86s-1,.17-.93.88a21,21,0,0,0,.11,2.85c-1.14-.09-1.42.52-1.29,1.52a9.47,9.47,0,0,1,0,1.19c-1.11.26-1.47-.15-1.42-1.3.09-2,0-3.91,0-5.87,0-.74.25-1,1-1q9.95,0,19.9,0c.84,0,1,.34,1,1.07C133.75,77.34,133.76,79.69,133.76,82.05Z"/><path class="cls-2" d="M129.17,79.41c0-1,.07-1.9.05-2.85,0-.67.35-.78.9-.76s1,0,1,.77c0,1,0,1.9.06,2.85Z"/><path class="cls-16" d="M124.62,79.43c0-1,.07-2,.06-3,0-.6.16-.86.8-.86s.92.18.93.88c0,1,.14,2,.22,3Z"/><path class="cls-10" d="M114.65,79.32a21,21,0,0,1-.11-2.85c-.05-.71.29-.88.93-.88s.84.26.81.86c0,1-.06,1.91-.08,2.86Z"/><path class="cls-16" d="M119.56,79.42c0-1,.07-2,0-3.08,0-.59.27-.74.8-.73s.94,0,.93.73c0,1,0,2,0,3.08Z"/><path class="cls-3" d="M102.09,82.06l-.91,0c0-.8-.05-1.59,0-2.39.06-1.23.06-2.4-1.28-3a.82.82,0,0,1-.44-.67.6.6,0,0,0-.68-.54c-.34,0-.49.18-.53.51,0,.15-.08.37-.18.42-2.24,1.11-1.66,3.17-1.71,5,0,.24,0,.48,0,.72-2.75,0-5.51,0-8.27,0-.85,0-1.1-.27-1.08-1.1,0-2,0-4.07,0-6.11,0-.72.21-1,1-1q10,0,19.91,0c.83,0,1,.33,1,1.06,0,1.76,0,3.52,0,5.28s0,1.89-1.87,1.78c0-.8,0-1.59,0-2.39a4.68,4.68,0,0,0-1.23-3.2c-1.17-1.55-1.32-.83-2.29,0a3.5,3.5,0,0,0-1.31,3.2C102.16,80.46,102.1,81.26,102.09,82.06Z"/><path class="cls-3" d="M70.41,112.53l-1.9,0c0-.76,0-1.52,0-2.28.09-1.22,0-2.31-1.27-3a1,1,0,0,1-.41-.57c-.11-.39-.27-.64-.72-.64s-.64.24-.71.64c0,.08,0,.19-.09.22-2.32,1.35-1.47,3.61-1.61,5.59-.82.15-1.25,0-1.22-1,.07-2,0-4,0-6,0-.65.18-.92.88-.91q9.95,0,19.89,0c.7,0,.87.28.86.93,0,2,0,4.07,0,6.11,0,.76-.31.94-1,.93-2.64,0-5.27,0-7.91,0,0-.8,0-1.6,0-2.4a3.53,3.53,0,0,0-1.21-2.9c-1-1.07-1.27-1.38-2.43,0a4.21,4.21,0,0,0-1.19,3.25C70.44,111.17,70.41,111.85,70.41,112.53Z"/><path class="cls-11" d="M110.76,67c-1.9,0-1.7.23-1.69-1.61s-.24-1.54,1.86-1.54c1.74,0,1.51-.23,1.51,1.65C112.45,67.17,112.66,67,110.76,67Zm0-.31c1,.19,1.5,0,1.5-1.21s-.42-1.41-1.5-1.39-1.46.14-1.44,1.33S109.65,66.92,110.73,66.66Z"/><path class="cls-3" d="M98,104.64c3.24,0,6.48,0,9.72,0,.89,0,1.18.24,1.15,1.14-.06,1.92,0,3.84,0,5.76,0,.9-.22,1.29-1.21,1.28q-9.7,0-19.43,0c-.85,0-1.23-.24-1.21-1.16,0-2,0-4,0-6,0-.79.25-1,1-1C91.33,104.66,94.65,104.64,98,104.64Z"/><path class="cls-13" d="M91.3,43l1.59.09c-.6.44-1.1.5-1.57-.11Z"/><path class="cls-13" d="M91.32,43l-.11,0,.09,0Z"/><path class="cls-15" d="M110.73,66.66c-1.08.26-1.42-.12-1.44-1.27s.45-1.31,1.44-1.33,1.5.16,1.5,1.39S111.71,66.85,110.73,66.66Z"/><path class="cls-2" d="M.15,81.84a2.56,2.56,0,0,0-.08.29c-.26,1.31-.53,6.41,12.37,2.34l.71-4.63-13,1Z"/></g></g></svg>