<svg xmlns="http://www.w3.org/2000/svg" viewBox="0 0 349.94 476.93"><defs><style>.cls-1{fill:#eff0f0;}.cls-2{fill:#e7e8e8;}.cls-3{fill:#62a6f1;}.cls-4{fill:#4a95f1;}.cls-5{fill:#7ab7f1;}.cls-6{fill:#89c3f1;}.cls-7{fill:#dbdcdd;}.cls-8{fill:#9acbf4;}.cls-9{fill:#5ca2f1;}.cls-10{fill:#86c0f1;}.cls-11{fill:#6aacf1;}.cls-12{fill:#79b7f1;}.cls-13{fill:#d0d0d0;}.cls-14{fill:#5e63b5;}.cls-15{fill:#5f64b5;}.cls-16{fill:#5f63b5;}.cls-17{fill:#86bef4;}.cls-18{fill:#75b3f4;}.cls-19{fill:#5e63b6;}.cls-20{fill:#5e64b6;}</style></defs><title>Ativo 23</title><g id="Camada_2" data-name="Camada 2"><g id="Camada_6" data-name="Camada 6"><path class="cls-1" d="M257.21,0c.76,1.19,1.27,3,2.35,3.47,2.94,1.35,2.27,3.36,1.64,5.53a11.49,11.49,0,0,0-7.68,5.44c-1.58,2.44-3.58,4.73-6.62,5.65-3.72.21-7.56,1.43-10.94-1.27a4.34,4.34,0,0,1,.15-1.48c2.51-7,2-7.72-5.72-7.77-8.66-.06-17.32-.15-26,0-34.62.65-69.22-1.05-103.84-1.11-4.48,0-8.87,1.37-13.36.53-.35-4.55,3.32-6.45,6-9Z"/><path class="cls-2" d="M87.22,9a21,21,0,0,1,9.63-2c12.65.1,25.34-.57,38,.16C167.39,9,200,7.4,232.57,8c2.59,0,5.64-.75,7.1,2.29s-.75,5.29-2.63,7.42a10.23,10.23,0,0,0-.82,1.24c-1.71,1.78-4,1.54-6.09,1.55-24.14,0-48.27.21-72.41-.13-4.84-.06-9.79.07-13.36-.79,23,1.33,46.93,5.19,71,7.9,6.11.69,12.24,1.34,18.34,2.11,2.32.29,4.63.61,6.63,2,2.88,3.38,2.37,7.5,2.37,11.45,0,48.11.16,96.23,0,144.34-.09,20.4,4.75,39.54,12.91,58,3.84,8.68,8,17.2,11.56,26,1.05,2.61,2.2,5.33.06,8-2.24,1.42-4.77,1.14-7.23,1.15-10.74.07-21.48-.28-32.22-.17a20.38,20.38,0,0,0-6.37.7c-8.43.85-16.91.65-25.36,1.3-11.91.91-23.86,1.48-35.74,2.83-2.65.29-5.3.61-7.83-.63-2.27-3.28-5.39-4.32-9.35-4.19-6.92.23-13.86.21-20.78,0-4-.11-7.5.63-10.49,3.37a8.31,8.31,0,0,1-4.38.64c-11.38-1.53-22.82-.54-34.23-.87-2.12-.06-4.36.17-6-1.64,4.81-2,21.56-43,26.78-59.19a117.29,117.29,0,0,0,5.23-31.2c2.24-55.6.39-111.22,1.08-166.82,0-4.07-.57-6.09-5.33-5.85C90.6,19.08,87.6,14.73,87.22,9Z"/><path class="cls-3" d="M.22,433a30.09,30.09,0,0,1,2.4-16c6.06-13.41,12.43-26.67,18.68-40,.93-1.58,1.69-3.26,2.64-4.8,2.12-3.44,5.1-5.65,9.36-5.66.5,0,1-.05,1.49,0,22.43.44,44.82-1.76,67.26-1a20.58,20.58,0,0,0,10.17-1.88c13,1.64,26.15.75,39.24.59,20.64.49,41.28.16,61.92.19,23.65,0,47.29.15,70.93-.09a14.13,14.13,0,0,1,6.8,1.19,10.18,10.18,0,0,1,4.92,5.4c4,8.94,8.67,17.57,12.33,26.67,3.19,9.64,3.5,19.24-.62,28.69-.77,1.77-1.09,4.52-4.29,3.64-2.7-3-6.16-3.44-10-3.19-26.59,1.73-53.24,2.85-79.84,1.64-22-1-43.88,1.1-65.82,1.2-40.14.17-80.28,0-120.42.09C18.22,429.66,8.78,428,.22,433Z"/><path class="cls-4" d="M.22,433c3-4.55,7.4-5.11,12.51-5.09,45.6.15,91.2.27,136.8,0,17.56-.11,35.15-2.23,52.66-1.63,17.28.59,34.58,1.24,51.8.45,14.22-.65,28.53.28,42.69-1.75,4.11-.59,6.71.83,7.54,5a2.4,2.4,0,0,1-.08,2.38,35.52,35.52,0,0,1-19.79,16.47c-.76.26-1.69.55-2.06.36,6.28-1.08,13.27.34,19.84-2.71a41.8,41.8,0,0,0,13.46-9.19,14.12,14.12,0,0,1,4.25-3.41c6.93-3.29,14.31-2.61,21.56-2.13,5.77.38,7.85,4.22,6.86,11.32-2.34,11.26-8.92,19.61-18,26.2-8.67,5.57-18.17,7.64-28.43,7.63q-127.34-.17-254.67-.05c-10.06,0-19.42-2.1-27.87-7.72C7.41,460,.06,448.48.22,433Z"/><path class="cls-5" d="M292.2,367c-3.3-1.33-6.72-1.07-10.19-1.07q-63.06.13-126.1,0c-1.59,0-3.37.55-4.69-.94-1-2.69-3-3.62-5.83-3.61q-13.39.06-26.79,0a10,10,0,0,0-6.32,2.46c-.33,2.29-2.1,2.78-4,3.05a16.57,16.57,0,0,1-3,.05c-24-.75-48,1.52-72.08,1-4.35-.1-6.93,2.51-9.26,5.56-.89,1.16-1.15,2.8-2.69,3.46,6.55-14.19,13-28.4,19.68-42.53,2-4.2,3.32-8.71,6.12-12.5,3.2-4.78,7.55-6.23,13.32-5.87,10,.62,20,0,29.94-.18,21.11-.4,42.22-3.05,63.35-.66,7.53.86,14.95-.82,22.44-.82,18.82,0,37.65-.17,56.47.07,8.19.11,16.27-1.12,24.44-1.12,4.67,0,8.93.81,12.56,3.9,5.09,5.49,7.13,12.68,10.41,19.17,1.73,3.4,3.28,6.91,5,10.31,1.87,4.92,4.24,9.61,6.55,14.32C292.5,362.93,294,364.84,292.2,367Z"/><path class="cls-6" d="M270.21,319c-7.34-5.53-15.56-4.46-23.82-3.24a34.47,34.47,0,0,1-5,.23c-17.64,0-35.29-.09-52.93.06-7.62.06-15.22-.45-22.87.8-6.71,1.11-13.54-.51-20.32-.82-17.45-.8-34.86.9-52.3,1.21-12.08.21-24.11,1.2-36.22,0C53,316.9,50.25,320.2,47.1,322c5.21-13,11.54-25.4,17.52-38a3,3,0,0,1,2.57-2.05c15,.22,30.05-.42,45,1.08,8.45.8,16.93.37,25.39.49a18.42,18.42,0,0,1,5.43.61,16.17,16.17,0,0,0,6.64,1.84c19.11,2.42,37.86,7.13,57,9.11,17.21,1.78,34.42,2.68,51.59-.33,1.59-.36,2.53.52,3.11,1.8,3,6.58,6.09,13.12,9.11,19.7A2.47,2.47,0,0,1,270.21,319Z"/><path class="cls-7" d="M267.21,279c0-7.86-4.54-14.15-7.6-20.82-7.37-16-14.16-32.18-17-49.69a86.76,86.76,0,0,1-1.31-13.81q-.13-74.15,0-148.29c0-4.81.26-9.63-1-14.35,3.83-2.16,7.24-1.24,10.42,1.41.16,46.11-.06,92.22.17,138.33,0,6.07-.43,12.28,1.38,18.26-.1,13.38,3.25,26.06,7.8,38.5,6.39,17.46,15.81,33.54,23.12,50.58A18.8,18.8,0,0,1,267.21,279Z"/><path class="cls-8" d="M267.21,279l15.88.12,3.28,7.87c-2.67.87-4.62-1.48-7.07-1.57-1.27-.05-2.72-.94-3.71.38s-.14,2.58.44,3.73c3.09,6.23,5.85,12.62,8.85,18.88,2.8,5.82,5.11,11.87,8.23,17.54,2.49,4.78,4.24,9.9,6.77,14.67a7.42,7.42,0,0,1,1.07,5.17c-3.3,6-11.45,6.62-16.75,1.25-5.62-8.86-8.85-18.91-14-28q-5.5-12-11-24a4.54,4.54,0,0,1-3-3.09c-3-8.69-10.66-9.55-18.09-10.41-4.09-.48-8.27,0-12.4-.14-1.64,0-3.36,0-4.58-1.41,1.55-1.42,3.47-.87,5.24-.88Q246.8,279,267.21,279Z"/><path class="cls-9" d="M348.26,443.1c-.29-8-2.42-10-10.48-10.14-6.3-.13-12.51.11-18.55,2.06-.57-1.44.22-2.58.89-3.7a38.44,38.44,0,0,0,4.41-30.52,9.5,9.5,0,0,1-.35-3.44c.72-6,6.38-6.83,10.74-2.8a32.43,32.43,0,0,1,4.24,5.44c4.49,9,9.63,17.69,10.58,28.05A36.28,36.28,0,0,1,348.26,443.1Z"/><path class="cls-10" d="M292.2,326c-5.84-9.83-9.71-20.61-14.71-30.84-1.22-2.49-2.84-4.77-3.63-7.56-1-3.45.05-4.11,3.27-3.82a19.79,19.79,0,0,1,9.24,3.17c6,12.18,12.43,24.17,17.05,37-1.18.76-2.15,0-3.16-.44C294.85,321.26,294.86,321.26,292.2,326Z"/><path class="cls-11" d="M339.16,400c-1.71-1.56-3.4-3.16-5.16-4.67-4-3.49-6.13-3.08-8.79,1.67a1.08,1.08,0,0,1-1.4,0c-2.8-3.23-3.71-7.41-5.48-11.15-3.22-6.76-6.39-13.55-9.63-20.31a12.79,12.79,0,0,1-1.5-5.76c2-4.9,4.06-5.7,8.44-3.32A25.65,25.65,0,0,1,320.3,360C327,373.11,333.36,386.42,339.16,400Z"/><path class="cls-12" d="M320.3,360c-2.1-.07-3.61-1.34-5.25-2.44-3.34-2.24-5.85-1.89-6.85,2.48-2.8-.1-3.05-2.64-4-4.39a36.49,36.49,0,0,1-4-10.61l-8-19c.16-6.31,1.27-7.06,6.94-4.49a48.9,48.9,0,0,1,4.27,2.44C309.54,335.73,315.25,347.69,320.3,360Z"/><path class="cls-2" d="M252.17,190c-2.74-1.41-1.94-4-1.94-6.21q-.06-75.41,0-150.82c-2.65-4.39-.74-9.43-2-14a87.24,87.24,0,0,0,6-7.61c1.82-2.85,4-3.53,7-2.35,0,7.12-.62,8.14-7.63,9.94-2.34.6-2.33,1.9-2.34,3.6,0,5,0,10,0,15q0,66.33,0,132.67C251.21,176.81,252.89,183.35,252.17,190Z"/><path class="cls-13" d="M248.19,19c2.37.34,2,2.17,2,3.76,0,3.42,0,6.84,0,10.26l-10-1c-12.61-1.6-25.21-3.28-37.84-4.78S177.07,24.47,164.43,23a216,216,0,0,1-24-4H248.19Z"/><path class="cls-5" d="M221.14,279.94c4.65,0,9.33.41,14,0,5.88-.53,11,1.87,16.39,3.31,3.22.86,3.69,4,5,6.43,1,1.73,1.81,3.54,2.71,5.32-3.86,3.91-9.11,2.56-13.52,2.78-23.87,1.23-47.48-1.35-70.87-6.32-9-1.91-18.2-3-27.32-4.39-1.67-.25-3.34-.14-4.3-1.87,2.76-2.31,5.86-1.94,9-1.17,16.66-1.25,33.32-2.6,50-3.71C208.51,279.9,214.83,280.05,221.14,279.94Z"/><path class="cls-14" d="M146.21,178.07c-9.65,0-19.31,0-29,0-2.29,0-4.75-.09-4.64-3.06.09-2.5,2.29-2.87,4.46-2.87q28.71,0,57.44,0c2.28,0,4.73.23,4.61,3.2s-2.77,2.76-4.92,2.76h-28Z"/><path class="cls-14" d="M145.87,258.31H117.45c-2.19,0-4.89.16-4.9-2.79s2.68-2.81,4.88-2.81q28.41,0,56.82,0c2.13,0,4.83-.33,4.84,2.79s-2.68,2.83-4.81,2.84q-14.21,0-28.41,0Z"/><path class="cls-14" d="M132.6,225.9h16c2,0,3.77.48,3.73,2.92s-1.71,3-3.75,3q-16,0-31.91,0c-2.26,0-4.19-.77-4.05-3.26.13-2.21,2-2.69,4.08-2.67C122,226,127.28,225.9,132.6,225.9Z"/><path class="cls-15" d="M152.22,284c-2.81,1.86-6,.67-9,1.17l-25.32-.12c-2.15,0-4.4.32-5.67-2.07.35-2.85,2.06-3.83,4.8-3.82,10.27.06,20.54,0,30.81,0C151.14,279.17,152.89,280.47,152.22,284Z"/><path class="cls-16" d="M132.48,199h15c2.18,0,4.73-.2,4.82,2.86s-2.32,3.12-4.59,3.12q-15.19,0-30.39,0c-2.31,0-4.77-.29-4.66-3.12s2.67-2.87,4.93-2.85C122.52,199.05,127.5,199,132.48,199Z"/><path class="cls-17" d="M300.21,345c3.68,4.46,4.07,10.67,8,15,2.52,9.11,8.11,16.85,11.34,25.65,1.41,3.83,3.1,7.57,4.67,11.35-3,6.23-12.39,6.23-17,0-5.56-9.72-9-20.51-15-30,0-4-2.71-7-4.23-10.41-1.4-3.15-3.13-6.15-3.77-9.59,3.54,2.5,7.59,1.94,11.56,2C298.59,349.06,299.23,346.9,300.21,345Z"/><path class="cls-18" d="M307.2,397c6.4,4.29,12.29,4.29,17,0h1c2.59,9.77,3,19.41-.8,29.07-1.32,3.3-3.53,5.93-5.18,8.95-9.69,12.49-22.62,16.7-39.2,14.52,11-4,19.22-9.84,24.19-19.53,5.34-8.28,6.06-17.28,4.23-26.68Q307.84,400.17,307.2,397Z"/><path class="cls-19" d="M132.26,392.05H116.31c-1.93,0-4-.26-3.85-2.75.12-2.09,1.79-3.17,3.82-3.18,10.8-.06,21.6,0,32.4,0,2.15,0,3.58.9,3.47,3.23-.09,2.12-1.59,2.72-3.45,2.72Z"/><path class="cls-19" d="M112.28,363.89c-.24-2.73,1-4,3.74-4,10.77,0,21.54,0,32.31,0,3.86,0,4.65,1.9,2.89,5.14-5,1.73-10.15.64-15.23.81-5.94.2-11.9-.05-17.84.09A8,8,0,0,1,112.28,363.89Z"/><path class="cls-20" d="M146.25,333q14,0,27.92,0c2.14,0,4.78-.35,4.9,2.76.14,3.46-2.61,3.22-5,3.22H118.25a10.86,10.86,0,0,1-3-.17c-1.71-.48-3.08-1.55-2.82-3.53.25-1.81,1.75-2.25,3.37-2.26l15.46,0C136.27,333,141.26,333,146.25,333Z"/><path class="cls-14" d="M131.78,312c-5.14,0-10.29,0-15.44,0-1.94,0-3.83-.15-4-2.63-.17-2.74,1.89-3.33,4-3.34,10.79-.08,21.58,0,32.37,0,2.16,0,3.56.9,3.45,3.24-.11,2.1-1.54,2.75-3.42,2.75Z"/></g></g></svg>