<svg xmlns="http://www.w3.org/2000/svg" viewBox="0 0 101.24 119.48"><defs><style>.cls-1{fill:#005875;}.cls-2{fill:#5c0dfe;}.cls-3{fill:#55affe;}.cls-4{fill:#2195ed;}.cls-5{fill:#45006d;}.cls-6{fill:#3907be;}.cls-7{fill:#010658;}.cls-8{fill:#010558;}.cls-9{fill:#fd7da1;}.cls-10{fill:#fd7fa2;}.cls-11{fill:#fc7da1;}.cls-12{fill:#f87ca2;}.cls-13{fill:#4b0bde;}.cls-14{fill:#4b0ddb;}.cls-15{fill:#f379a0;}.cls-16{fill:#9294b7;}.cls-17{fill:#4c0edd;}.cls-18{fill:#636698;}.cls-19{fill:#131359;}.cls-20{fill:#000150;}.cls-21{fill:#8b8eb3;}.cls-22{fill:#040557;}.cls-23{fill:#2b2b2b;}.cls-24{fill:#fe7ea1;}.cls-25{fill:#f7f9fa;}.cls-26{fill:#986cfe;}.cls-27{fill:#4609d7;}.cls-28{fill:#9364fe;}.cls-29{fill:#3f08cb;}.cls-30{fill:#9b70fe;}.cls-31{fill:#9873f2;}.cls-32{fill:#9465fe;}.cls-33{fill:#2296ed;}.cls-34{fill:#349ff3;}.cls-35{fill:#7fcbfe;}.cls-36{fill:#80cbfe;}.cls-37{fill:#7dcafe;}.cls-38{fill:#80ccfe;}.cls-39{fill:#abe8fe;}.cls-40{fill:#fe8895;}.cls-41{fill:#9ad7fe;}.cls-42{fill:#fefefe;}.cls-43{fill:#eef8fe;}.cls-44{fill:#f7fbfe;}.cls-45{fill:#e4f4fe;}.cls-46{fill:#f2f9fe;}</style></defs><title>Ativo 24</title><g id="Camada_2" data-name="Camada 2"><g id="Camada_6" data-name="Camada 6"><path class="cls-1" d="M57.12,0a18.29,18.29,0,0,1,2,.88,6.15,6.15,0,0,1,3.23,5.37c.06,1.75,0,3.5,0,5.25a1.31,1.31,0,0,1,.26.56,4.13,4.13,0,0,1-.1,1.64,3.08,3.08,0,0,0-.24,2.19,35.15,35.15,0,0,1,.39,3.54,2.57,2.57,0,0,1,0,.62,2.94,2.94,0,0,0,.48,2c.09.12,0-.05.05.1.25,2.71.62,5.44-.25,8.09-.24.74-.13,1.5-.43,2.2-1,.73-1.81-.12-2.69-.38a1.34,1.34,0,0,1-.66-.86,9.38,9.38,0,0,1-.1-1.91q0-9.84,0-19.68A6.28,6.28,0,0,0,57.36,5,6.1,6.1,0,0,0,53,3.29c-3.88-.09-7.76,0-11.64,0-.85,0-1.38.31-1.46,1.2-.21,2.39-2,3.65-4.54,3.61-2.8-.05-5.6,0-8.4,0s-3.82-.91-4.38-3.58a1.29,1.29,0,0,0-1.45-1.22c-3.8,0-7.6-.07-11.4,0A5.81,5.81,0,0,0,4.13,6.75a6.23,6.23,0,0,0-.39,2.7V76.89c0,9.36,0,18.72,0,28.08a5.56,5.56,0,0,0,2.2,4.69,5.18,5.18,0,0,0,3.35,1.08q22.08,0,44.16,0a5.54,5.54,0,0,0,5.69-5.47c0-.56,0-1.12,0-1.68q0-32.7,0-65.39A7.37,7.37,0,0,1,59.28,36a.6.6,0,0,1,.87-.36,3.9,3.9,0,0,1,2.28,1.55c0,.48,0,1,0,1.44V109c0,3.6-1.81,6.1-5,6.84a9.09,9.09,0,0,1-2,.16H7.06c-3.64,0-5.58-1.38-6.84-4.81,0-.1-.15-.17-.22-.26V5.28C.6,2.08,2.08.6,5.28,0Z"/><path class="cls-2" d="M73.41,110.68c-2.07-.12-2.14-.11-2.22-2.24-.25-7.1-1-14.19-.59-21.3.42-6.58,1.24-13.12,2-19.66.59-5,1.23-10.06,1.85-15.1.29-.4.75-.4,1.17-.46,2.95-.44,5.9-.85,8.84-1.28a1.77,1.77,0,0,1,1.16.12c.62,1.49.55,3.12.9,4.66-.11.74-.63.58-1.1.48a6.22,6.22,0,0,0-2.56-.36,10.62,10.62,0,0,0,2.87,1.4,2.17,2.17,0,0,1,.35.15,1.66,1.66,0,0,1,.9,1.47c.81,7.23,2,14.39,3.36,21.54,1.35,7.31,3,14.57,4.52,21.83.42,2.45,1,4.86,1.53,7.3.1.14.21-.08.09,0s-.08,0-.1-.07c-.56-2.47-1.07-5-1.57-7.44-1.46-6.85-3-13.69-4.29-20.57-.89-4.57-1.64-9.16-2.32-13.77-.45-3-.76-6-1.28-9-.43-2.51-.58-5-1-7.55a1,1,0,0,1,.88-.53c2.34-.32,4.66-.72,7-1,.34-.05.72-.15,1,.19A24.7,24.7,0,0,1,94.18,58c-.88,3.29-.51,6.47,0,9.7q2.91,17.3,5.78,34.59a1.87,1.87,0,0,0-.16.92,17.81,17.81,0,0,1,.07,5,8.34,8.34,0,0,0,.24,1.51l-.82.22a10.76,10.76,0,0,1-5.48.49c-.12,0-.24,0-.36,0-2.47.1-2.47.1-3.28-2.33-2.28-6.89-4.59-13.77-6.5-20.77-.09-.32,0-.73-.42-.94-.8-1.24-.87-2.72-1.25-4.08C80.3,76,78.58,69.77,77,63.49a6.94,6.94,0,0,0-.17-.94,61.87,61.87,0,0,0,.94,12.25c.3,1.59.36,3.24.76,4.82a6.6,6.6,0,0,1,.46,2.4c-.28,1.11.58,2.09.41,3.19a99.15,99.15,0,0,0-1.55,17.71c0,2.26-.15,4.53-.2,6.8a1.38,1.38,0,0,1-.3,1A5.43,5.43,0,0,1,73.41,110.68Z"/><path class="cls-3" d="M94.76,49.5l-7.91,1.15a9.28,9.28,0,0,0-.91.22c-.09.14-.18.15-.29,0l-9.55,1.3c-.55.08-1.1.13-1.65.19.09-2.67.06-5.36.4-8,.55.57.34,1.29.31,1.94a2,2,0,0,0,1.39,2.12c3.45,1.52,8.68.73,10.67-3.72A99,99,0,0,0,91.6,34.09c.33-1,1.09-1.94,1.16-2.73a95.41,95.41,0,0,1-8.43,12.45c-2.86,3.39-6.87,2.84-9.49.36L62.43,37.23a16.32,16.32,0,0,0-2.9-1.51.83.83,0,0,1-.82-.56A6.77,6.77,0,0,1,60.07,32l2.3.66a7.66,7.66,0,0,1,3.33.76l7.86,2.48c1.14.36,1.11.31,1.27-.88A20.29,20.29,0,0,0,75,31.77a29.75,29.75,0,0,1,2.38-9.6c-2.53,3.25-4.27,6.75-4.13,11a1.81,1.81,0,0,1-2.8,0A17.53,17.53,0,0,1,67,28.72a68.19,68.19,0,0,1-4.55-8.83v-.42a6.28,6.28,0,0,1,3.09-2.17c2.25,2.8,4.51,5.58,6.72,8.42.56.71.83.69,1.38,0,2-2.43,4-4.8,6-7.19a7.85,7.85,0,0,1,5.92-2.69c.52-.5,1.19-.35,1.8-.34,1.39,0,2.82-.34,4.18.29,2.89.28,3.9,1.23,4,4.15.17,4.31.07,8.62-.13,12.93-.16,3.43-.21,6.86-.33,10.29C95,45.27,94.86,47.38,94.76,49.5Z"/><path class="cls-4" d="M74.84,44.17c1.58.81,3.1,1.74,5,1.69a5.8,5.8,0,0,0,4.45-2.45,113.94,113.94,0,0,0,8.26-12.27,4.1,4.1,0,0,1,.81-1c-.68,1.1-.32,2.53-1.32,3.55-.54.55-.49,1.48-.74,2.22a69.57,69.57,0,0,1-4.26,9.77,6.31,6.31,0,0,1-4.47,3.38,9.5,9.5,0,0,1-5.82-.25C75,48.05,74.86,48,74.88,46c0-.56,0-1.11,0-1.67A.41.41,0,0,1,74.84,44.17Z"/><path class="cls-5" d="M85.48,15.61c-1-.06-2-.08-3-.2-1.23-.17-1.38-.47-.87-1.56.3-.65.64-1.28,1-1.92.74-.61,1.43,0,2.12.13,1.35.3,1.57.19,1.59-1.17,0-2.49.14-2-1.89-1.7-.44.07-.93.33-1.35-.09a1.51,1.51,0,0,1-1-1.7,1.92,1.92,0,0,1,1.5-1.68,17.81,17.81,0,0,1,6.78-.41c1.85.29,2.79,1.77,2.59,4A21.06,21.06,0,0,1,91.63,14,3.68,3.68,0,0,1,89,10.55c.06-.44.33-1.09-.36-1.15s-.73.61-.75,1.14a19.39,19.39,0,0,1-.2,3.57C87.38,15.58,87,15.82,85.48,15.61Z"/><path class="cls-2" d="M79.44,110.59l-.66.09a1.05,1.05,0,0,1-1.29,0,19.94,19.94,0,0,1,0-4.3q.16-4.83.31-9.68a92.49,92.49,0,0,1,1.06-10c.67-.42.81.15,1,.57a10.92,10.92,0,0,1,.78,3.34,6,6,0,0,0,1.12,3l-1.11,13.73a.62.62,0,0,1-.28-.56C79.79,107.94,80.15,109.4,79.44,110.59Z"/><path class="cls-6" d="M77.27,63.37q1.67,6.21,3.32,12.4,1.32,4.89,2.61,9.78a5.56,5.56,0,0,1,.08.83c-.65,2-.74,4-1.26,6-.62.23-.68-.33-.92-.65-.76-1-.42-2.29-.82-3.4a48,48,0,0,1-1.56-6.28l-.48-2.4c-.26-2.2-.52-4.4-.76-6.6q-.49-4.26-.68-8.57C76.78,64.06,76.59,63.54,77.27,63.37Z"/><path class="cls-7" d="M85.9,115a2,2,0,0,1,1.27-1,66.43,66.43,0,0,1,6.69-2.37,1.16,1.16,0,0,1,.87-.34c1.54.09,3.09-.3,4.62.12.6,1.13.4,2.38.5,3.58a2.42,2.42,0,0,1-1.54.55,104.46,104.46,0,0,1-11.33.25C86.49,115.75,85.78,115.85,85.9,115Z"/><path class="cls-8" d="M65.23,114.94a1.35,1.35,0,0,1,1-1,52.17,52.17,0,0,1,7.11-2.2,11.26,11.26,0,0,1,5.62,0c.58.92.19,2,.33,2.92s-.66.82-1.19.83c-2.31,0-4.61,0-6.92,0a7,7,0,0,0-1.77.11c-1.08.06-2.16,0-3.24,0C65.66,115.66,65.07,115.73,65.23,114.94Z"/><path class="cls-9" d="M85.48,15.61c1.68-.14,1.83-.24,2-2,.1-1.14.09-2.3.11-3.46,0-.51.06-1,.64-1.12.35-.1.73-.24,1,0a1,1,0,0,1,.17,1.32,1.43,1.43,0,0,0,.46,1.89c.61.56,1,1.38,1.75,1.75a5.75,5.75,0,0,0-.15,1.8l-6,.05A1.64,1.64,0,0,1,85.48,15.61Z"/><path class="cls-10" d="M65.51,17.3l-3.09,2.17c-.17-1.52-.35-3-.49-4.56,0-.45-.2-1,.43-1.2.45,0,.46.49.71.75.64-1-.27-1.65-.63-2.4V11.5A3,3,0,0,1,65,13.9C65.25,15,65.35,16.16,65.51,17.3Z"/><path class="cls-11" d="M83.07,9.1c.94-.17,1.88-.31,2.81-.5.6-.13.9,0,.82.66-.1.91-.12,1.83-.19,2.74-.06.67-.37.85-1.05.64a7.86,7.86,0,0,0-2.86-.7c-.56-.2-.79-.45-.38-1.06A12.64,12.64,0,0,0,83.07,9.1Z"/><path class="cls-12" d="M99.35,111.38a37.35,37.35,0,0,1-5.49.22c0-.39,0-.78,0-1.17a52.86,52.86,0,0,1,5.48-.49Z"/><path class="cls-13" d="M78.72,82.08a3.71,3.71,0,0,1,.73,2.15,9.82,9.82,0,0,0,.65,2.56A14.59,14.59,0,0,1,80.82,90,3.16,3.16,0,0,0,82,92.41l-.23,1.2c-.75-.22-1-.86-1.16-1.51-.43-1.45-.29-3-.93-4.43-.16-.35-.17-.77-.51-1a2.84,2.84,0,0,1,0-1.73C79,84,78.3,83.12,78.72,82.08Z"/><path class="cls-14" d="M100.14,109.72c-.67-.29-.53-.9-.54-1.44,0-1.67.4-3.35-.07-5-.13-.43.14-.75.47-1,.38,2.12.7,4.24,1.17,6.34C101.4,109.61,101.09,109.88,100.14,109.72Z"/><path class="cls-15" d="M78.91,111.77H73.28a1.94,1.94,0,0,0,.13-1.09l3.84-.09a.22.22,0,0,1,.3,0l1.23.09A2,2,0,0,0,78.91,111.77Z"/><path class="cls-16" d="M85.9,115c0,.6.42.56.83.55,4-.09,7.9,0,11.85-.28a9.54,9.54,0,0,0,1.27-.26c.23.32.42.64,0,1a12.1,12.1,0,0,0-3.75-.09l-3.45.09c-2.23,0-4.46,0-6.69.21A.77.77,0,0,1,85.9,115Z"/><path class="cls-17" d="M79.44,110.59A9.64,9.64,0,0,1,80.56,106l.12,1.31a21.5,21.5,0,0,0,0,2.27C80.72,110.58,80.26,110.78,79.44,110.59Z"/><path class="cls-18" d="M69.32,115.4a58.67,58.67,0,0,1,6.63-.2c.79,0,1.59,0,2.38,0,.39,0,.82.06.91-.49.1.41.34.82-.06,1.21-2.05-.24-4.11,0-6.17-.12a14.59,14.59,0,0,0-2.47-.1C70.12,115.65,69.66,115.8,69.32,115.4Z"/><path class="cls-19" d="M86,116.13c1-.56,2.12-.21,3.18-.37a26,26,0,0,1,3.53,0c1,.26,2.14-.17,3.18.23C92.55,116.21,89.25,116.16,86,116.13Z"/><path class="cls-20" d="M72.93,115.64c1.72,0,3.44,0,5.16,0,.37,0,.81-.2,1.09.24H65.31c0-.28.15-.33.37-.33C68.1,115.61,70.52,115.47,72.93,115.64Z"/><path class="cls-21" d="M72.93,115.64c-2.17,0-4.35,0-6.52.06-.36,0-.79-.19-1.1.2-.39-.29-.34-.62-.08-1,.07.59.51.47.89.47h3.2C70.51,115.64,71.75,115.21,72.93,115.64Z"/><path class="cls-22" d="M95.84,116c-1-.21-2.15.17-3.18-.23l6.61-.21c.29,0,.56,0,.57.4Z"/><path class="cls-23" d="M23.48,119.48c-.28-.47-1.44-.12-1.13-1.07.18-.56.74-.44,1.16,0-.21.51-.65-.28-.86.23C22.73,119.07,23.56,118.79,23.48,119.48Z"/><path class="cls-24" d="M54.24,30.16a1.73,1.73,0,0,0,.71,0c1.82-.74,3.21.08,4.52,1.22l.6.55c-.39,1.09-.79,2.17-1.18,3.26a9.6,9.6,0,0,0-2.62-.14c-1.21,0-1.78-.5-1.74-1.75,0-.58-.6-.86-.47-1.41-.32-.38-.75-.15-1.12-.22s-1-.26-1-.85.48-.85,1-.91A1.84,1.84,0,0,1,54.24,30.16Z"/><path class="cls-25" d="M35.64,3c.71.12,1.18.46,1.18,1.16a1.15,1.15,0,1,1-2.3-.05C34.55,3.35,35.05,3.06,35.64,3Z"/><path class="cls-26" d="M85.65,50.89l.29,0c.39,2.51.85,5,1.17,7.53.68,5.29,1.5,10.54,2.36,15.8,1.49,9.18,3.62,18.23,5.46,27.35,0,.07,0,.15.06.23s-.07.23-.22.26c-1-3.6-1.57-7.28-2.38-10.92q-2.17-9.83-3.76-19.76C88,67.24,87.25,63.13,86.89,59a2.44,2.44,0,0,0-1.21-1.87c.58,0,.75-.17.52-.72-.1-.23,0-.46.15-.68C86.12,54.1,85.89,52.5,85.65,50.89Z"/><path class="cls-27" d="M77.27,63.37c-.64,1.13,0,2.25.06,3.37.1,3.74.6,7.46,1.07,11.17a8.21,8.21,0,0,1-.16,1.77c-.68-.81-.53-1.9-.63-2.78-.37-3.26-1.2-6.5-1.15-9.76,0-1.81-.46-3.68.23-5.53C77.14,62.14,77.07,62.8,77.27,63.37Z"/><path class="cls-28" d="M77.55,110.59h-.3c.1-4.23.14-8.47.3-12.7A81.73,81.73,0,0,1,79,85.32a1.37,1.37,0,0,1,.22-.41c0,.58,0,1.15,0,1.73a39,39,0,0,0-.92,6.08c-.41,4.72-.47,9.45-.56,14.18C77.69,108.13,77.52,109.36,77.55,110.59Z"/><path class="cls-29" d="M86.35,55.71l.27,1.52-.94-.12h0a19.68,19.68,0,0,1-3.38-1.75c1.14-.49,2.19,0,3.26.28C85.84,55.71,86.08,55.87,86.35,55.71Z"/><path class="cls-30" d="M94.77,102l.22-.26q.81,4,1.64,8l-.29.06C95.79,107.23,95.14,104.67,94.77,102Z"/><path class="cls-31" d="M82.31,55.37a19,19,0,0,1,3.38,1.75A6.28,6.28,0,0,1,82.31,55.37Z"/><path class="cls-32" d="M94.47,51.55a3.46,3.46,0,0,1-2,.48A2.91,2.91,0,0,1,94.47,51.55Z"/><path class="cls-33" d="M75.35,31.75c-.78.37-1.3,1.14-2.16,1.36-.19,0-.41-.07-.38-.36A18.21,18.21,0,0,1,76,23.65a15,15,0,0,1,1.85-2.16A36.17,36.17,0,0,0,75.35,31.75Z"/><path class="cls-34" d="M79.79,32.83c-.66,1.34-1.35,2.67-2,4-.27.61-.68.46-1.06.28-.61-.26-.15-.54,0-.8l2.8-3.62Z"/><path class="cls-35" d="M83.06,37.44l4.82-9.7.3.15c-1.65,3.17-3.09,6.45-4.9,9.55C83.21,37.56,83.13,37.56,83.06,37.44Z"/><path class="cls-36" d="M93.1,17.76C92.06,19.87,91,22,90,24.08l-.28-.14,3.15-6.31Z"/><path class="cls-37" d="M80.67,42c-2.26.75-4.08-.69-6.07-1.28C76.66,41,78.47,42.49,80.67,42Z"/><path class="cls-35" d="M71.46,39.43,66,36.71l.12-.27,5.49,2.69Z"/><path class="cls-38" d="M83.06,37.44h.22a30.82,30.82,0,0,1-1.89,4l-.27-.14Z"/><path class="cls-39" d="M39.48,106.54c-4.36,0-8.72,0-13.08,0-.93,0-1.22-.24-1.22-1.2q.06-12.72,0-25.42c0-1,.33-1.26,1.3-1.26q13.12.06,26.26,0c1,0,1.29.26,1.28,1.27q-.06,12.7,0,25.42c0,1-.33,1.2-1.23,1.19C48.35,106.52,43.91,106.54,39.48,106.54Z"/><path class="cls-39" d="M37.68,64.08c0,2.08,0,4.16,0,6.24,0,.7-.19,1-.94,1q-13.44,0-26.87,0c-.81,0-1-.29-1-1q0-12.9,0-25.79c0-.79.24-1,1-1,2.84,0,5.68,0,8.52,0,.95,0,1.33-.19,1.32-1.24,0-3.12,0-3.12-3.14-3.12-2.2,0-4.4,0-6.59,0-.92,0-1.19-.29-1.14-1.17a28.67,28.67,0,0,0,0-3.59c-.06-1,.23-1.32,1.25-1.3,2.8.07,5.6,0,8.4,0a1.84,1.84,0,0,0,1.37-.27c.44.36.37.86.37,1.33,0,3.52,0,7,0,10.55a2.9,2.9,0,0,1-.56,1.9,1.26,1.26,0,0,0,0,1.75,2.38,2.38,0,0,1,.55,1.78c0,3.63,0,7.27,0,10.9a2.82,2.82,0,0,1-.57,1.9.82.82,0,1,0,1.1,1.22,3.38,3.38,0,0,1,2-.42H32.93a5,5,0,0,1,2.9.51C36.44,64.64,37.05,64.09,37.68,64.08Z"/><path class="cls-39" d="M23.15,28.78H10.69c-1.59,0-1.59,0-1.59-1.64,0-1.2,0-2.4,0-3.59,0-.71.2-1,.95-1q13.25,0,26.48,0c.77,0,.95.3.94,1,0,1.39-.06,2.79,0,4.19,0,.89-.34,1.05-1.12,1.05C31.94,28.77,27.55,28.78,23.15,28.78Z"/><path class="cls-40" d="M15.67,78.69a2.11,2.11,0,0,1,2,2.07,2.1,2.1,0,0,1-4.2,0A2.11,2.11,0,0,1,15.67,78.69Z"/><path class="cls-40" d="M15.58,94.57a2,2,0,1,1,2.12-2A2.12,2.12,0,0,1,15.58,94.57Z"/><path class="cls-40" d="M17.69,104.67a2.2,2.2,0,0,1-2,2.1,2.22,2.22,0,0,1-2.17-2.1,2.15,2.15,0,0,1,2-2A2.11,2.11,0,0,1,17.69,104.67Z"/><path class="cls-41" d="M54.23,63.54c0-.37.12-.84-.48-.91s-.45-.47-.45-.83q0-6.11,0-12.22c0-.27-.06-.55.19-.78,1.06-1,1.07-1.57,0-2.54a.76.76,0,0,1-.2-.65c0-4.32,0-8.63,0-13,0-.57.21-.81.78-.74.11-.17.24-.39,0-.46s-.79,0-1.17-.1-.77-.12-.72-.6.37-.49.7-.52.94,0,1.41-.08c-.36-.75-1.87-1-2.27-.26a1,1,0,0,1-1,.58H38.6c-.3,0-.61.08-.86-.25-.76-1-1.59-1-2.29,0-.24.34-.54.28-.84.28q-6.3,0-12.59,0c-.3,0-.7.12-.82-.3-.34-1.16-1.28-.64-1.89-.55S19,30.49,19,31s-.08.88.56,1,.32.56.36.89q0,6.24,0,12.47a1.11,1.11,0,0,1-.27.88c-1,1-1,1.59.08,2.64a1,1,0,0,1,.19.79v12c0,.41,0,.78-.46,1a1.25,1.25,0,0,0-.32,1.94,1.35,1.35,0,0,0,1.9,0,1.25,1.25,0,0,1,1-.43H34.4a1.07,1.07,0,0,1,.86.28,1.49,1.49,0,0,0,2.42-.28l13.18,0a1.09,1.09,0,0,1,1.1.48c.44.62,1.27.33,1.89.22S54.18,64,54.23,63.54Zm-1.44-1.83a1.86,1.86,0,0,1-1.64,1.79c-4.35.12-8.71.06-13.06,0-.14,0-.28-.12-.42-.18a9.31,9.31,0,0,1-.38-3.19q0-7.32,0-14.64c0-1.64-.06-1.7-1.67-1.7H22.42A6.83,6.83,0,0,1,21,43.74c-.44-.09-.73-.29-.71-.8a27,27,0,0,1,.12-3.82h0a2.57,2.57,0,0,1,1.83-.38c4.19,0,8.38,0,12.57,0,2.26,0,2.26,0,2.26-2.32V36.3c0-3,.33-2.79-2.74-2.79H22.23a2.57,2.57,0,0,1-1.83-.38c-.32-.54-.17-.75.28-1.29,1-1.21,2.15-.84,3.27-.85,3.47-.05,7,0,10.42,0,.5,0,1-.11,1.21.63.15.51,1.89.49,2,0,.2-.68.63-.6,1.09-.6H50.82a2.14,2.14,0,0,1,2,2V45.21c0,.5.08.95-.59,1.25s-.53,2,.09,2.22.49.54.49.93C52.81,53.64,52.83,57.68,52.79,61.71Z"/><path class="cls-42" d="M37.06,36.36Z"/><path class="cls-39" d="M20.4,39.12c0,1,.06,2.08,0,3.11s.34,1.25,1.3,1.25c4.91,0,9.82,0,14.73,0,1,0,1.3.21,1.29,1.24,0,6.23,0,12.45,0,18.68a1.36,1.36,0,0,0-2.39-.13c-.26.41-.58.36-.92.36H22.26a2,2,0,0,1-1.85-1.83c0-4,0-8.07,0-12.1a1.08,1.08,0,0,1,.23-.88,1.63,1.63,0,0,0,0-2.53c-.08-.09-.19-.19-.19-.29C20.46,43.68,19.74,41.4,20.4,39.12Z"/><path class="cls-39" d="M20.4,33.12c5.3,0,10.61,0,15.92,0,.92,0,1.17.32,1.12,1.18a33.07,33.07,0,0,0,0,3.59c.06,1-.22,1.3-1.25,1.29-5.26,0-10.53,0-15.79,0Z"/><path class="cls-43" d="M19.72,31.4c-.4-.35-.28-.67-.27-1S19.73,30,20,30s.45-.06.5.17-.35.23-.45.4A5.29,5.29,0,0,0,19.72,31.4Z"/><path class="cls-44" d="M53.47,63.16c.52,1.14,0,1.29-1,1.09C53,64,53.5,63.84,53.47,63.16Z"/><path class="cls-43" d="M53.54,46.69a1.54,1.54,0,0,1,0,1.57A1.4,1.4,0,0,1,53.54,46.69Z"/><path class="cls-45" d="M52.47,46.72a1.25,1.25,0,0,1,.18,1.47C52.15,47.79,52.36,47.36,52.47,46.72Z"/><path class="cls-46" d="M35.86,30.33c.58-.39.9-.39,1.33-.09C36.8,30.59,36.46,30.46,35.86,30.33Z"/><path class="cls-46" d="M35.86,31.27c.57-.38.9-.38,1.33-.09C36.79,31.53,36.45,31.41,35.86,31.27Z"/></g></g></svg>