<svg xmlns="http://www.w3.org/2000/svg" viewBox="0 0 108.01 116.2"><defs><style>.cls-1{fill:#004985;}.cls-2{fill:#ed82b3;}.cls-3{fill:#d3f0fe;}.cls-4{fill:#000b8f;}.cls-5{fill:#00226a;}.cls-6{fill:#fe85b5;}.cls-7{fill:#abd9e9;}.cls-8{fill:#fe85b4;}.cls-9{fill:#01ef70;}.cls-10{fill:#a1a1fe;}.cls-11{fill:#cadffe;}.cls-12{fill:#a0a0fe;}.cls-13{fill:#48006d;}.cls-14{fill:#49016e;}.cls-15{fill:#fe55aa;}.cls-16{fill:#9ac2dd;}.cls-17{fill:#010b90;}.cls-18{fill:#c6c6fe;}.cls-19{fill:#0a518c;}.cls-20{fill:#1d6096;}.cls-21{fill:#539ffe;}.cls-22{fill:#dffafe;}.cls-23{fill:#f953a8;}.cls-24{fill:#88d3fe;}.cls-25{fill:#f954a9;}.cls-26{fill:#12e2fe;}.cls-27{fill:#14e2fe;}.cls-28{fill:#13e2fe;}.cls-29{fill:#15e2fe;}.cls-30{fill:#76a5c8;}.cls-31{fill:#13e1fe;}.cls-32{fill:#519afe;}.cls-33{fill:#519bfe;}.cls-34{fill:#def8fe;}.cls-35{fill:#f0629a;}.cls-36{fill:#e2fcfe;}.cls-37{fill:#cfedfb;}.cls-38{fill:#76a6c8;}.cls-39{fill:#d1ecfb;}.cls-40{fill:#52a0fe;}.cls-41{fill:#f878ab;}.cls-42{fill:#ef5d97;}.cls-43{fill:#e02e9e;}.cls-44{fill:#12f0fe;}.cls-45{fill:#12f1fe;}.cls-46{fill:#11f1fe;}.cls-47{fill:#d1f8fe;}.cls-48{fill:#51a1fe;}.cls-49{fill:#fb5aae;}.cls-50{fill:#d8d8fe;}.cls-51{fill:#529ffe;}.cls-52{fill:#559afd;}.cls-53{fill:#2049ba;}.cls-54{fill:#ddf7fe;}.cls-55{fill:#11eefe;}.cls-56{fill:#11effe;}.cls-57{fill:#12f2fe;}.cls-58{fill:#27a5fe;}.cls-59{fill:#20e8fe;}.cls-60{fill:#ed98cd;}.cls-61{fill:#fe4ba4;}.cls-62{fill:#e1f9fe;}.cls-63{fill:#e0179c;}.cls-64{fill:#cc89cd;}.cls-65{fill:#dff8fe;}.cls-66{fill:#e2f9fe;}.cls-67{fill:#e4f9fd;}.cls-68{fill:#5088fe;}.cls-69{fill:#e0f9fe;}.cls-70{fill:#7ddafe;}.cls-71{fill:#e5fefe;}.cls-72{fill:#e3fafe;}.cls-73{fill:#e4f9fe;}.cls-74{fill:#e2f8fe;}.cls-75{fill:#00417f;}.cls-76{fill:#003b7b;}.cls-77{fill:#1a0a4e;}.cls-78{fill:#054d86;}.cls-79{fill:#f9a2ca;}.cls-80{fill:#004e8e;}.cls-81{fill:#ee608e;}.cls-82{fill:#170552;}.cls-83{fill:#004481;}.cls-84{fill:#fe86b2;}.cls-85{fill:#fd55aa;}.cls-86{fill:#fc54a9;}.cls-87{fill:#aedbea;}.cls-88{fill:#f5f5fd;}.cls-89{fill:#c7e9f7;}.cls-90{fill:#b8e0ef;}.cls-91{fill:#e7f5fe;}.cls-92{fill:#b5deee;}.cls-93{fill:#c6e8f7;}.cls-94{fill:#fe7fb1;}.cls-95{fill:#e4c3df;}.cls-96{fill:#d0f6fe;}.cls-97{fill:#f672a1;}.cls-98{fill:#bae1f0;}.cls-99{fill:#ebf4fe;}.cls-100{fill:#d0f7fe;}.cls-101{fill:#f891ba;}.cls-102{fill:#001963;}.cls-103{fill:#f3f7fe;}.cls-104{fill:#b8e0f0;}.cls-105{fill:#fa77ab;}.cls-106{fill:#f95cad;}.cls-107{fill:#f25d95;}.cls-108{fill:#ddfbfe;}.cls-109{fill:#11e2fe;}.cls-110{fill:#3f477b;}.cls-111{fill:#5dccfe;}.cls-112{fill:#23e8fe;}.cls-113{fill:#50c8fe;}.cls-114{fill:#2abcfe;}.cls-115{fill:#20bafe;}.cls-116{fill:#38c0fe;}.cls-117{fill:#63cdfe;}.cls-118{fill:#2fbefe;}.cls-119{fill:#24eafe;}.cls-120{fill:#21c9fe;}.cls-121{fill:#69cffe;}.cls-122{fill:#56c9fe;}.cls-123{fill:#42c3fe;}.cls-124{fill:#3067ce;}.cls-125{fill:#2552c0;}.cls-126{fill:#01078c;}.cls-127{fill:#02088d;}.cls-128{fill:#03098e;}.cls-129{fill:#1e45b7;}.cls-130{fill:#3169cf;}.cls-131{fill:#214bbb;}.cls-132{fill:#316ad0;}.cls-133{fill:#000189;}.cls-134{fill:#1f47b8;}.cls-135{fill:#000188;}.cls-136{fill:#2049b9;}.cls-137{fill:#336cd2;}.cls-138{fill:#3068cf;}.cls-139{fill:#1f48b9;}.cls-140{fill:#326bd0;}.cls-141{fill:#326bd1;}.cls-142{fill:#000187;}.cls-143{fill:#2c60ca;}.cls-144{fill:#f456a9;}.cls-145{fill:#95e9f7;}.cls-146{fill:#de2599;}.cls-147{fill:#84216f;}.cls-148{fill:#c7a8d5;}.cls-149{fill:#4ab1f1;}.cls-150{fill:#fbe8fd;}.cls-151{fill:#f3b1d4;}.cls-152{fill:#f96ea5;}.cls-153{fill:#f6fdf9;}.cls-154{fill:#039dfe;}.cls-155{fill:#d81a98;}.cls-156{fill:#fe4ca3;}.cls-157{fill:#f0fdf7;}.cls-158{fill:#28e7fe;}.cls-159{fill:#effdf6;}.cls-160{fill:#5499fd;}.cls-161{fill:#468afe;}.cls-162{fill:#448dfe;}.cls-163{fill:#07eefe;}.cls-164{fill:#75b1fc;}.cls-165{fill:#00e6fe;}.cls-166{fill:#fe8ab2;}.cls-167{fill:#fe71a0;}.cls-168{fill:#17e3fe;}.cls-169{fill:#1bf1fe;}.cls-170{fill:#1df2fe;}.cls-171{fill:#d8fbf8;}.cls-172{fill:#e2fcf7;}.cls-173{fill:#2de5fe;}.cls-174{fill:#3af2fe;}.cls-175{fill:#0aebfe;}.cls-176{fill:#21e9fe;}.cls-177{fill:#33edfd;}.cls-178{fill:#1be3fe;}.cls-179{fill:#33f4fe;}.cls-180{fill:#effdf7;}.cls-181{fill:#2be5fe;}.cls-182{fill:#07e9fe;}.cls-183{fill:#1ae5fc;}.cls-184{fill:#fe541a;}.cls-185{fill:#020533;}.cls-186{fill:#fef724;}.cls-187{fill:#f4b14d;}.cls-188{fill:#0193fe;}.cls-189{fill:#2aa4fe;}.cls-190{fill:#83c8fe;}.cls-191{fill:#97ecfa;}.cls-192{fill:#e02a9b;}.cls-193{fill:#da2197;}.cls-194{fill:#f7fcfb;}.cls-195{fill:#edfcfc;}.cls-196{fill:#e2fbfc;}.cls-197{fill:#1dbdfe;}.cls-198{fill:#03e0fe;}.cls-199{fill:#2a5cc6;}.cls-200{fill:#9d2c7c;}.cls-201{fill:#eefdf7;}.cls-202{fill:#19e9fe;}.cls-203{fill:#43ecfe;}.cls-204{fill:#42ecfe;}.cls-205{fill:#36ebfe;}.cls-206{fill:#3cedfd;}.cls-207{fill:#a4f4f9;}.cls-208{fill:#fefef6;}.cls-209{fill:#a6f4f9;}.cls-210{fill:#ddfaf7;}.cls-211{fill:#f5fcfb;}.cls-212{fill:#fcfdfd;}.cls-213{fill:#9a96b1;}.cls-214{fill:#fefb1e;}</style></defs><title>Ativo 22</title><g id="Camada_2" data-name="Camada 2"><g id="Camada_6" data-name="Camada 6"><path class="cls-1" d="M107.92,63.36c0,.8,0,1.59.08,2.39,0,.63.06,1.22-.88,1.06-.35-.06-.48.19-.48.52s0,.64,0,1V114c0,.48,0,1,0,1.44-.33.17-.55.08-.6-.29a9.73,9.73,0,0,1,0-1.08q0-23,0-45.89c0-.44.24-1-.23-1.34-14.57,0-29.15,0-43.72,0-9.17,0-18.33,0-27.5,0-.48,0-1,0-1.43.08a2,2,0,0,0-.6-.06c-10,0-20,0-29.94,0-.49.36-.24.88-.24,1.32q0,23.06,0,46.1a3.24,3.24,0,0,1-.1,1.42c-.17.19-.33.2-.49,0a2.93,2.93,0,0,1-.11-1.41q0-23.13,0-46.26c0-.42.18-.88-.16-1.27H0V63.4a10.93,10.93,0,0,1,2.68-.11,3.41,3.41,0,0,0,1.38-.21c1.89-.06,3.78,0,5.68,0a8.56,8.56,0,0,0,3.42.12.93.93,0,0,1,.4.06,2,2,0,0,1,.34.22,6.58,6.58,0,0,0,2,.07c4.27,0,8.55,0,12.83,0a5.31,5.31,0,0,0,1.54-.1l.39-.19a1.35,1.35,0,0,1,.63,0c.72,0,1.44,0,2.15,0,5.94,0,11.87,0,17.81,0a4.4,4.4,0,0,0,1.3-.1,3.85,3.85,0,0,1,.66-.13,6.46,6.46,0,0,1,.88,0c1.6,0,3.19-.07,4.79.06a11,11,0,0,0,3.08.17c.77.08,1.53-.17,2.3-.14a11.82,11.82,0,0,0,4.11,0,13.81,13.81,0,0,1,2.13-.09h.64c2.55,0,5.09,0,7.63,0,.46,0,1,.1,1.3-.38.37-1.93.07-3.88.17-5.82A3,3,0,0,1,80.58,55c.55-.07.41.35.41.61q0,3.57,0,7.13c0-2.61,0-5.22,0-7.83.09-.15.24-.21.36-.09s.06.27,0,.4a58.46,58.46,0,0,0,.08,8c1.73-.07,3.47.11,5.2-.11a1.09,1.09,0,0,1,.4.07,2.46,2.46,0,0,1,.34.22,27,27,0,0,0,3.71.06c3.75,0,7.5,0,11.25,0a3.66,3.66,0,0,0,1.54-.16,1.4,1.4,0,0,1,.4-.16C105.47,63.38,106.71,63.16,107.92,63.36Z"/><path class="cls-2" d="M4,63.24c-1.33.27-2.69,0-4,.16v-.24l3.6,0A.27.27,0,0,1,4,63.24Z"/><path class="cls-3" d="M32.88,20.44c2.67-.47,5.29.09,7.92.43.4.05.8,0,1.2,0a.82.82,0,0,1,.37-.16,75.17,75.17,0,0,1,8.21.88c.63,0,1.26,0,1.88,0-.31,0-.6,0-.89,0h-.52a2.2,2.2,0,0,1-1.21-.22,4.43,4.43,0,0,0-1.57-.23,2.29,2.29,0,0,1-.36-.07c-.78-.27-1.75,0-2.36-.79.12-.44.59-.37.85-.59a3.07,3.07,0,0,1,.79-.44,17.32,17.32,0,0,1,3,.34c.71.16,1.45.16,2.16.32.72.35,1.42.67,1.25,1.71-.08.51.47.48.79.52,2,.23,4.08.44,6.12.66.34.4.8.18,1.21.23l3.83.25c.08.19,0,.28-.19.32.85-.26,1.78.19,2.6-.32,2.4-.4,3.84-1.43,4-3.13a16.06,16.06,0,0,0-.21-3.31A37.5,37.5,0,0,1,71.29,12a.74.74,0,0,0,.11-.56c-.05-1.59,0-1.67,1.58-1.68a15.06,15.06,0,0,1,1.9,0c.46,0,.88.18.83.78,0,.12,0,.15.07.1s0-.06.06-.1c.55.94.28,2,.4,3,.4,3.22.55,6.47.8,9.71a2,2,0,0,0,.23,1.44A13.15,13.15,0,0,1,77.48,27c-.13,1.91-1.25,2.75-3.71,2.78-3.71,0-7.41.44-11.12.24-.84-.05-1.11.16-1,1a16.3,16.3,0,0,1,0,2.52c-.16,9.78.38,19.57.25,29.35a2.17,2.17,0,0,1-2,.2c-.57-.51-.09-.91.13-1.34a.84.84,0,0,1,.28-.18c.13-2,0-3.93.06-5.89a2,2,0,0,1,.24-.84c.08-.18.21-.35.13-.56a.51.51,0,0,0-.28-.15c-2.69,0-5.39-.11-8.08.06a.79.79,0,0,0-.21.27,4.24,4.24,0,0,0-.05.71c0,.66,0,1.31,0,2s0,1.07,0,1.6,0,.81,0,1.21v.41a7,7,0,0,0,.15,1.94c.08.3.17.62-.21.8-1.33.11-1.46,0-1.47-1.32V41.65a6.27,6.27,0,0,0,0-1.15c.06,7.08,0,14.14,0,21.19a1.65,1.65,0,0,1-.19,1,1.63,1.63,0,0,1-1.13.28q-7.23,0-14.45,0a2.27,2.27,0,0,1-.82-.12c-.61-.86-.48-1.29.47-1.46a7.29,7.29,0,0,1,1.32,0H47.6c1.64,0,1.73-.09,1.74-1.65v-15a9.74,9.74,0,0,0-.6.95,1.06,1.06,0,0,0,.07,1.51,1.63,1.63,0,0,1,.22,2,1.54,1.54,0,0,1-1.86.74,3.06,3.06,0,0,0-3.37,1.35,31.1,31.1,0,0,1-7.24,7.42c-.27.18-.5.41-.78.57-1.16.67-1.71.37-1.74-.94a.7.7,0,0,0-.19-.43c0-.34-.11-.7.21-1a15.2,15.2,0,0,0,4.62-3.53,44.82,44.82,0,0,0,3.26-4,3.06,3.06,0,0,1,1.22-1.12c1,0,2.09,0,3.11,0A12.42,12.42,0,0,1,44,48.16c-.36-.42-.07-.78.18-1a38.09,38.09,0,0,0,4.66-6.8,9.81,9.81,0,0,1,1.71-2.14c.84-.54,1-1.6,1.63-2.1a15.53,15.53,0,0,0-1.1,1.37c-3.82,3.93-7.38,8.13-11.57,11.7a3.71,3.71,0,0,1-4.2.59,9,9,0,0,1-2.18-5,.52.52,0,0,0-.23-.49c0-1.14-.56-2.2-.49-3.35a.83.83,0,0,0-.24-.73v-.47c0-.27,0-.55-.23-.73L31,32.2c0-.34.11-.71-.23-1-.23-2-.45-4-.68-6s.18-4.23,2.11-4.57A.83.83,0,0,0,32.88,20.44Z"/><path class="cls-3" d="M51.57,92c-.27-.25-.25-.74-.82-.73-2.61,0-5.22.06-7.83.07-2.31.18-4.62,0-6.92.06a30.69,30.69,0,0,0-3.33.16c-.07-.18-.09-.44-.22-.54-1.45-1.1-1.09-2.62-.87-4s.14-3,.27-4.51a43.37,43.37,0,0,0,.32-5.1,4.2,4.2,0,0,0,.23-2.16l.49-7.44a1.71,1.71,0,0,1,1.49-.82c5.13,0,10.26,0,15.4,0a1.53,1.53,0,0,1,.69.17c.38.24.28.62.28,1q0,10.71,0,21.43c0,.2.16.48,0,.55.12-.1,0-.39,0-.62,0-6.94,0-13.88,0-20.83a7.2,7.2,0,0,1,0-1.31,1,1,0,0,1,.85-.35q4.56-.06,9.12,0c.69,0,1.14.29,1.13,1.07,0,3,.1,6.09-.06,9,0,0-.12-.42.3-.37,0,3.84,0,7.68,0,11.51,0,1,.33,2.13-.61,3-.19.18-.09.69-.09,1,0,5.64,0,11.28,0,16.91,0,.44.24,1-.3,1.31a2.83,2.83,0,0,1-.31-1.85c0-5.51,0-11,0-16.53a.84.84,0,0,0-.19-.53,9.4,9.4,0,0,0-3.81,0,29.81,29.81,0,0,1-3.66.07A2.85,2.85,0,0,0,51.57,92Z"/><path class="cls-4" d="M32.67,91.51c.13-.3.27-.52.68-.51,3.08.06,6.16.1,9.24.15a.94.94,0,0,1,.33.14Q42,96.17,41.07,101c-.51,2.78-1.06,5.56-1.48,8.36-.17,1.11-.59,1.52-1.68,1.28a4.32,4.32,0,0,0-.95,0,.59.59,0,0,1-.39.13c-.9,0-1.79,0-2.69,0a1.54,1.54,0,0,1-1.2-.34c-1.59-.24-1.62-.24-1.48-1.9q.68-7.5,1.36-15C32.62,92.87,32.63,92.19,32.67,91.51Z"/><path class="cls-4" d="M61.2,91.48c0,2.63,0,5.26,0,7.89,0,3.68-.06,7.35-.1,11l-1.34,0c-1.13.65-2.36.28-3.54.33a1.5,1.5,0,0,1-.84-.32l-.06-.06c-.79-.7-.31-1.7-.59-2.52.26-1.12-.18-2.24,0-3.36a7.39,7.39,0,0,0,.12-2.15,39.62,39.62,0,0,1,.25-4.87A9.6,9.6,0,0,1,55,98.91a.26.26,0,0,1-.37-.07c0-1.44-.2-2.88-.15-4.33v.27a9.49,9.49,0,0,0,.11,2.13,12.94,12.94,0,0,0,.22,3c0,1.23,0,2.47,0,3.7a11,11,0,0,0,0,2.69,4.38,4.38,0,0,1,0,1.2,8.31,8.31,0,0,0-.15,1c-.1.26-.09.55-.17.82a.73.73,0,0,1-.77.61c-.44,0-.61-.31-.71-.7a4.26,4.26,0,0,1-.09-1.07c0-3.62-.39-7.23-.68-10.84-.11-1.35-.07-2.71-.24-4.06-.1-.76.15-1.44,1.11-1.39-.32-.15-.82.26-1.15-.18,0-.31.22-.31.41-.3,2.56.07,5.11-.16,7.67-.13A2,2,0,0,1,61.2,91.48Z"/><path class="cls-3" d="M33.85,57.88c.2,0,.38.08.43.33s-.5.8.09,1a1.42,1.42,0,0,0,1.44-.37c1-.78,1.89-1.59,2.86-2.35,2.25-1.77,3.74-4.19,5.49-6.39.82-1,1.82-.66,2.74-.6s1.55.36,1.93-.58A1.29,1.29,0,0,0,48.05,47c-.45-.17-.23-.5-.06-.79.5-.85,1-1.7,1.5-2.6.35.29.18.67.18,1,0,5.2,0,10.4,0,15.6,0,1.13-.3,1.54-1.48,1.52-4.44-.06-8.88,0-13.32,0-.72,0-1.18.13-1.06,1a.33.33,0,0,1-.47,0Z"/><path class="cls-5" d="M52.31,20c-.72.51-1.42,0-2.12-.08a.65.65,0,0,1-.27-.46,1.3,1.3,0,0,1,.11-.7,6.56,6.56,0,0,0,1.65-3.49c.32-.39.68-.77.44-1.34a1.05,1.05,0,0,0-.28-.49c-.29-.21-.65-.31-.88-.61a.91.91,0,0,0-1.5-.25c-.74.58-1.92.7-2.09,1.92,0,.13,0,.25,0,.38,0,1.08,0,2.15,0,3.22a1.77,1.77,0,0,1-.34,1.35l-.48.57c-.92,0-1.83.08-2.75.12a1.55,1.55,0,0,1-1.12-.42c-.25-.3-.69-.3-.94-.6A1.69,1.69,0,0,1,41,17.44a7.35,7.35,0,0,1,.61-3.15,9.66,9.66,0,0,0,1.31-3.51c0-.94,1-1.45,1.86-1.62a24.79,24.79,0,0,1,5.83-.41A3,3,0,0,1,53.3,11,9.32,9.32,0,0,1,52.31,20Z"/><path class="cls-6" d="M66.5,38.7c.48.2.41.63.41,1,0,1,.07,1.92,0,2.87-.54,6.38.7,12.51,2.55,18.56a1.55,1.55,0,0,1-.52,2,13.13,13.13,0,0,1-4.55.17c-1-.53-.87-1.45-.79-2.35,0-1.78.81-3.45.79-5.24.38-1.6.75-3.2,1.13-4.8,0-3.66,0-7.31,0-11,0-.44-.18-1,.41-1.25l.13.08c.11.07,0,.25.18.3a.61.61,0,0,1,.11-.29A.47.47,0,0,1,66.5,38.7Z"/><path class="cls-7" d="M35.3,49.73l2,.07c1.63.07,2.47-1.24,3.44-2.13,3.57-3.3,6.79-6.93,10.15-10.43.75.53,0,.68-.24,1a38.46,38.46,0,0,0-2.16,3.27A48.07,48.07,0,0,1,43.91,48c-.17.25-.45.21-.69.29a.88.88,0,0,0-.24.19,36.26,36.26,0,0,1-7.4,8c-.37.28-.84,1-1.52.36Q34.67,53.31,35.3,49.73Z"/><path class="cls-8" d="M2.86,62c-.41-1.85-.09-3.72-.16-5.58a1.9,1.9,0,0,0-.17-1c-.69-1.12-.67-1.14.59-1.15,2.36,0,4.71,0,7.07,0,.91,0,1.16.29,1.13,1.17-.06,1.83-.06,3.67,0,5.5a2.85,2.85,0,0,1-.76,2.29,1.79,1.79,0,0,1-.83.09H6.85c-.38,0-.8.09-1.1-.28,0-.68.54-.57.92-.63.59-.08,1.2,0,1.79,0,1.38-.08,1.85-.63,1.75-2,0-.57-.25-.9-.86-.91H4.93c-.72,0-1,.41-1,1-.08.26-.17.51-.48.58-.34-.2-.28-.54-.3-.84a5.23,5.23,0,0,1,.17-1.85A8.72,8.72,0,0,0,3.13,61C3.17,61.34,3.21,61.71,2.86,62Z"/><path class="cls-9" d="M105.17,22.94A4.11,4.11,0,1,1,101,18.86,4.12,4.12,0,0,1,105.17,22.94Z"/><path class="cls-10" d="M22.09,17.32a2,2,0,0,1-.54.2h-10c-.66,0-.94-.25-.92-.92.12-3.17-.66-2.81,2.69-2.85,2.39,0,4.79,0,7.18,0a3.76,3.76,0,0,1,1.63.2A9,9,0,0,1,22.09,17.32Z"/><path class="cls-11" d="M22.33,21.64c-.06,1.68-1.1,1.76-2.47,1.71-2.75-.11-5.51-.05-8.26,0-.77,0-1-.21-1-1,0-2.6-.07-2.6,2.56-2.6h7.31c1.66,0,1.66,0,1.66,1.68C22.17,21.47,22.3,21.5,22.33,21.64Z"/><path class="cls-12" d="M22.06,34.57c-3.52,0-7,0-10.54,0-.63,0-.92-.14-.95-.86C10.45,31,10.42,31,13.19,31c2.55,0,5.11,0,7.67,0,.41,0,.88-.18,1.24.21A9.43,9.43,0,0,1,22.06,34.57Z"/><path class="cls-12" d="M22.1,27.42c.19,1.13-.24,1.49-1.41,1.46-3-.09-6-.05-9,0-.77,0-1.14-.12-1.14-1,0-2.59-.05-2.59,2.54-2.59h7.31c1.65,0,1.65,0,1.7,1.64A.5.5,0,0,1,22.1,27.42Z"/><path class="cls-13" d="M36.73,112.39A3.68,3.68,0,0,0,39.52,114c1.54.26,3.08.47,4.62.72.35,0,.82.11.85.51s-.47.56-.83.69a2.91,2.91,0,0,1-.81.2c-.44,0-.88,0-1.32,0H31.88l.73-3.86A4.87,4.87,0,0,1,36.73,112.39Z"/><path class="cls-14" d="M59.69,112.22c.6,1.14,1.72,1.36,2.81,1.56,1.49.28,3,.47,4.49.71.35.05.8.1.84.52s-.44.53-.76.65a5.2,5.2,0,0,1-1.76.29c-3,0-6,0-9,0-.81,0-1-.23-1-1,.08-.95.06-1.91.08-2.87a1.37,1.37,0,0,1,.57-.27C57.25,111.88,58.54,111.4,59.69,112.22Z"/><path class="cls-15" d="M69,6.29c-1.06-.33-1.13-1.17-.86-2,.13-.4-.55-.54-.14-.89.27-.19.57-.09.86-.1a6.18,6.18,0,0,0,1.87-.07L71.5,3a6.52,6.52,0,0,1,1-.19c.63.14.89.76,1.39,1.08A16.22,16.22,0,0,1,75.57,9.4c-.73.56-1.58.25-2.38.32-.46,0-.93,0-1.39,0a1.35,1.35,0,0,1-.4,0,.46.46,0,0,1-.31-.23l-.2-2.09c-.35-.05-.3-.47-.56-.6a3.44,3.44,0,0,0-.53-.21A1.71,1.71,0,0,1,69,6.29Z"/><path class="cls-16" d="M61.91,66.71l27.53,0,16.39,0c.07,0,.09.11.07.16s-.05.08-.08.08H61.93c-2,.23-4,.06-6,.1-1.63,0-3.26,0-4.89,0a3.28,3.28,0,0,1-.7,0H33.57a1,1,0,0,1-.69-.12H2.4a.14.14,0,0,1-.06-.16s0-.07.06-.07l29.18,0c.52,0,1,0,1.55,0a2.13,2.13,0,0,1,.83-.07H61.08A2.34,2.34,0,0,1,61.91,66.71Z"/><path class="cls-17" d="M61.2,91.48H52c.56.66,2.11-.5,1.92,1.23-.47-.2-.65-1-1.29-.64s-.38.94-.33,1.42c.24,2.57.29,5.16.51,7.72s.42,4.85.44,7.29c0,.42-.29,1.11.45,1.15s.37-.71.53-1.09a1.86,1.86,0,0,1,.21-.28c.47.53.31,1.17.32,1.79a2.48,2.48,0,0,1-2,.13q-.48-7.1-1-14.19c-.09-1.35-.19-2.71-.28-4.06-.07-.64.29-.74.84-.73,1.49,0,3,0,4.47,0a17.4,17.4,0,0,1,4.08,0C61.08,91.26,61.23,91.28,61.2,91.48Z"/><path class="cls-18" d="M22.1,27.42c0-.18,0-.36,0-.54,2.35.13,2.35.13,2.35-2.14v-.95c0-2.14,0-2.14-2.14-2.15l-.25-.24c2.39,0,2.43,0,2.38-2.38,0-1.05.27-2.13-.2-3.16,0-.41.17-.4.44-.21q0,17.75,0,35.49c0,.79,0,1.47.91,1.74a2.09,2.09,0,0,1-1.74.18,1.5,1.5,0,0,1-.33-.23c.79-.24.95-.77.95-1.58-.05-5.63,0-11.26,0-16.88,0-.57.41-1.42-.8-1.47-1,0-1.54.16-1.38,1.28,0,.12-.15.26-.22.39,0-1.12,0-2.23,0-3.35.21.88.34,1.79,1.66,1.47.47-.11.72-.21.72-.72,0-1.31,0-2.63,0-3.94,0-.81-.49-.88-1.11-.87A2,2,0,0,0,22.1,27.42Z"/><path class="cls-19" d="M105.82,67v-.24c.46.43.24,1,.24,1.47q0,22.93,0,45.85c0,.48-.37,1.17.48,1.4-.52.47-.61.48-.7,0a4.39,4.39,0,0,1,0-1V68.44C105.86,68,105.84,67.48,105.82,67Z"/><path class="cls-20" d="M2.4,66.76V67c0,4,0,8.08,0,12.11q0,17.7,0,35.39c0,.41.21.88-.18,1.24l0-42.46c0-1.8,0-3.6,0-5.4C2.15,67.49,2,67.06,2.4,66.76Z"/><path class="cls-20" d="M1.39,66.77c.44.21.31.61.31,1q0,24,0,48c-.36-.37-.17-.83-.17-1.24q0-23.09,0-46.15C1.5,67.8,1.43,67.29,1.39,66.77Z"/><path class="cls-21" d="M87.12,63.44l-.24-.14a.41.41,0,0,1,.24-.34,4.61,4.61,0,0,1,1.77-.17h13.16c1.65,0,1.75-.09,1.76-1.76a22.85,22.85,0,0,0-.08-3.7,2.59,2.59,0,0,1-.17-.38.81.81,0,0,1,0-.41c0-.05.09-.1.13-.16.77-.09,1,.24,1,1,0,1.66,0,3.32,0,5,0,.61.18.83.81.84a5.87,5.87,0,0,1,2.43.15l-3.76.06a1.8,1.8,0,0,1-1.16.21H88.28A2,2,0,0,1,87.12,63.44Z"/><path class="cls-21" d="M31.2,63.31l-.48.11a1.8,1.8,0,0,1-1.16.21H14.84a1.88,1.88,0,0,1-1.16-.2l-.24-.13a.41.41,0,0,1,.24-.34,4.61,4.61,0,0,1,1.77-.17H28.72c1.51,0,1.64-.11,1.64-1.63a14.63,14.63,0,0,0-.12-3.68.77.77,0,0,0-.48-.22,6.47,6.47,0,0,1-.87-.11,1.11,1.11,0,0,1-.3-.17.37.37,0,0,1-.06-.32c.42-.35.95-.2,1.42-.29h.32c.76-.08,1,.24,1,1-.06,1.9,0,3.8,0,5.7.06.07.08.12,0,.16A.12.12,0,0,1,31.2,63.31Z"/><path class="cls-22" d="M50.88,67h11a2.37,2.37,0,0,1,.23,1.26c0,2.78,0,5.56,0,8.33-.48.37,0,1-.47,1.56,0-3.32,0-6.49,0-9.66,0-1-.24-1.31-1.26-1.29-3.18.06-6.37,0-9.56,0-.07,0-.09-.1-.07-.15S50.86,67,50.88,67Z"/><path class="cls-23" d="M59.69,112.22c-1.25-.29-2.53,0-3.79-.17-.56-.64-.09-1.12.27-1.61h3.62C59.76,111,59.72,111.63,59.69,112.22Z"/><path class="cls-24" d="M68.9,2.92a15.21,15.21,0,0,0,0-1.66C68.72.25,69.13,0,70.11,0S71,.64,71,1.25a.58.58,0,0,1,.2.46c-.06.5.24,1-.17,1.5a.85.85,0,0,1-.36,0C70.09,3.19,69.43,3.38,68.9,2.92Z"/><path class="cls-25" d="M36.73,112.39l-4.12,0c0-.16,0-.31,0-.47.33-1,1.21-1.21,2.08-1.29a6,6,0,0,1,2,.06.15.15,0,0,1,.2,0A4.56,4.56,0,0,1,36.73,112.39Z"/><path class="cls-26" d="M19.2,52.82h1.2a3.84,3.84,0,0,1-.21,3.79,1.22,1.22,0,0,1-1.28-.16,24.09,24.09,0,0,1-.07-2.82A.81.81,0,0,1,19.2,52.82Z"/><path class="cls-27" d="M103.44,52.83c.53,1.15.08,2.37.27,3.54l-.06.06c-.69.43-1.36.58-2-.15a8.63,8.63,0,0,0,.06-2c-.06-.94.2-1.47,1.25-1.29A.55.55,0,0,0,103.44,52.83Z"/><path class="cls-27" d="M23.55,52.83a.5.5,0,0,1,.21,0,.93.93,0,0,0,.69.1c.81-.1,1,.33,1,1a15,15,0,0,0,0,2.12c-.31,1-1.06.54-1.69.52a.54.54,0,0,1-.29-.27Z"/><path class="cls-28" d="M30,52.83c.54,1.14.09,2.37.27,3.54l0,.05c-.68.12-1.37.4-2-.17a8,8,0,0,0,.06-2c-.07-1,.22-1.45,1.25-1.28A.54.54,0,0,0,30,52.83Z"/><path class="cls-29" d="M92.15,56.37c.17-1.17-.25-2.38.25-3.53A.67.67,0,0,0,93,53c.91-.12,1.19.31,1.13,1.16a11.25,11.25,0,0,0,0,2c-.3,1-1.06.54-1.68.53A.57.57,0,0,1,92.15,56.37Z"/><path class="cls-27" d="M96.94,56.37c.17-1.18-.28-2.39.26-3.54,1.67.3,1.67.3,1.68,2.11a7.76,7.76,0,0,0,0,1.18c-.31,1-1.07.54-1.69.52A.51.51,0,0,1,96.94,56.37Z"/><path class="cls-26" d="M14.13,56.23l0-3.15c.29-.2.62-.08.93-.12.69-.1.88.21.87.88a6.21,6.21,0,0,0,.12,2.35h.05a.3.3,0,0,1-.12.35,2.12,2.12,0,0,1-1.76,0A.27.27,0,0,1,14.13,56.23Z"/><path class="cls-30" d="M31.2,63.31a.87.87,0,0,1,.05-.22l2.11,0a2.46,2.46,0,0,1,1.51-.21c5.11,0,10.22,0,15.33,0a10.33,10.33,0,0,0,2.15.09c.34-.09.69-.19.83.29l-.39.12a3.41,3.41,0,0,1-1.31.09H34.69a4.11,4.11,0,0,1-1.31-.07Z"/><path class="cls-31" d="M89.52,53.08v.24a6.77,6.77,0,0,0,0,2.87l0,0a.3.3,0,0,1-.12.35,2.16,2.16,0,0,1-1.76,0,.29.29,0,0,1-.13-.34l0,0a4.37,4.37,0,0,0,.1-2c-.08-1,.25-1.4,1.25-1.24C89.14,53,89.35,53,89.52,53.08Z"/><path class="cls-32" d="M87.56,56.23a.45.45,0,0,1,.07.18c.09.14.29.2.27.41a.72.72,0,0,1-.2.29,2,2,0,0,1-.31.2,20.92,20.92,0,0,0-.16,4.11c0,.58.1,1.2-.33,1.7,0,.06,0,.12,0,.18a28.46,28.46,0,0,1-5.46,0c1.3,0,2.61-.13,3.91-.07.93,0,1.15-.29,1.11-1.15-.07-1.43,0-2.86,0-4.29C86.34,56.85,86.57,56.3,87.56,56.23Z"/><path class="cls-33" d="M14.13,56.23a.64.64,0,0,1,.06.18c.09.14.29.2.27.41a.72.72,0,0,1-.2.29,2,2,0,0,1-.31.2,20.92,20.92,0,0,0-.16,4.11c0,.58.11,1.19-.33,1.7a1.1,1.1,0,0,1,0,.18,15.69,15.69,0,0,1-3.56,0q-.15-.06-.09-.12a.21.21,0,0,1,.11,0h.65c2.43.07,2.43.07,2.43-2.29,0-1,.08-2.07,0-3.1S13.13,56.3,14.13,56.23Z"/><path class="cls-34" d="M32.88,67,50.4,67c.08,0,.11.1.08.14s0,.07-.08.07h-14c-1.19,0-2.42-.2-3.52.48C32.89,67.48,32.88,67.24,32.88,67Z"/><path class="cls-35" d="M9.9,63.17a.23.23,0,0,0,0,.16L4,63.24l-.43-.11c-.32-.33-.74-.6-.74-1.14s0-.82.05-1.23c.27-.17-.19-.78.44-.72l0,1c.74.5,1.15,1.43,2.12,1.64a1.26,1.26,0,0,1,.22.24C7.09,63.42,8.51,63,9.9,63.17Z"/><path class="cls-36" d="M50.4,63.12h-17v-.22a1.38,1.38,0,0,1,.82-.11c5.32,0,10.64,0,16,0A.28.28,0,0,1,50.4,63.12Z"/><path class="cls-37" d="M50.4,62.92h-17a1.69,1.69,0,0,1,0-.23h17l.06.12Z"/><path class="cls-38" d="M64.12,63.15h6.4a.14.14,0,0,1,.09.15c0,.06,0,.09,0,.09l-2.18,0a19.67,19.67,0,0,1-4.06,0l-2.43,0a10.15,10.15,0,0,1-2.86,0l-5-.12a.26.26,0,0,1,.15-.33,7.54,7.54,0,0,1,2.06-.15,23.53,23.53,0,0,1,3.25.1c.78.3,1.61,0,2.39.21l1.45,0A.54.54,0,0,1,64.12,63.15Z"/><path class="cls-39" d="M42.82,19.45c.3.13.48.48.86.48.64.11,1.34-.19,1.92.29s1.67.23,2.4.7a3,3,0,0,1-2.16.17,18.86,18.86,0,0,0-3.6-.18H42a4.34,4.34,0,0,1-.24-1.43A1,1,0,0,1,42.82,19.45Z"/><path class="cls-40" d="M28.56,56.68l0,.24,0,.2c-.06,1.3.31,2.64-.27,3.9-.67-.11-.56-.67-.6-1.1-.07-.63,0-1.27-.05-1.9a.7.7,0,0,0-.76-.72c-.51,0-.84.19-.88.73s0,1.27,0,1.9c-.05.43.08,1-.61,1.08-.6-1.22-.23-2.51-.28-3.78a2.08,2.08,0,0,1,.11-.41,1,1,0,0,1,.46-.42h2.37A1.46,1.46,0,0,1,28.56,56.68Z"/><path class="cls-40" d="M103.68,56.67l0,.25-.14.14c-1.45.43-1.44.43-1.47,2a3,3,0,0,1-.3,1.94c-.59,0-.51-.49-.58-.84a6.35,6.35,0,0,1,0-1.07c0-1.8,0-1.8-1.83-1.85a2.82,2.82,0,0,1-.57-.09.8.8,0,0,1-.32-.19c-.15-.64.52-.31.69-.57h2.37C102.2,56.76,103,56.37,103.68,56.67Z"/><path class="cls-41" d="M64.38,55.72c.25,0,.28.17.24.42-.28,1.53-.53,3.08-.78,4.61-.32,0-.49-.25-.68-.46C63.57,58.76,64,57.24,64.38,55.72Z"/><path class="cls-42" d="M63.16,60.29a.67.67,0,0,1,.68.46,5.9,5.9,0,0,0,.28,2.4h-.75C62.42,62.26,63.09,61.25,63.16,60.29Z"/><path class="cls-43" d="M36.76,110.64c-1,.17-2-.07-3,.43-.44.23-.61.8-1.15.8l0-1.44A19.23,19.23,0,0,1,36.76,110.64Z"/><path class="cls-44" d="M103.44,52.83c-1.45.14-1.61,1.09-1.45,2.28a1.14,1.14,0,0,1-.23,1.11h-.14c0-.56,0-1.11,0-1.67C101.58,52.69,101.58,52.69,103.44,52.83Z"/><path class="cls-45" d="M94.08,56.21c-.35-.31-.27-.74-.23-1.11.15-1.18,0-2.13-1.45-2.26.28,0,.55,0,.83-.07.84-.13,1.13.23,1.06,1.06s0,1.59,0,2.38Z"/><path class="cls-46" d="M25.45,56.22A1.25,1.25,0,0,1,25.22,55c.15-1.18,0-2.06-1.46-2.15a6.11,6.11,0,0,1,1.86,0l0,3.35Z"/><path class="cls-47" d="M75.84,10.6v.92C76,10,75,10,73.92,10.11a3.65,3.65,0,0,1-.47,0c-1.7,0-1.7,0-2,1.62,0,.11-.13.2-.19.29,0-.32,0-.64,0-1a1.33,1.33,0,0,1,.06-1.28,9.92,9.92,0,0,1,4.27.09C75.89,10.06,75.83,10.34,75.84,10.6Z"/><path class="cls-48" d="M16.05,56.41a.48.48,0,0,1,.09-.21,6.36,6.36,0,0,0,2.57.17l.14.09c.61.25,1.23,0,1.85,0a.58.58,0,0,1,.25.24.3.3,0,0,1-.15.3,1.37,1.37,0,0,1-.52.16c-.37,0-.74,0-1.1,0h-.56c-.75,0-1.49,0-2.24,0a1.08,1.08,0,0,1-.35-.1.55.55,0,0,1-.24-.26C15.74,56.61,16,56.55,16.05,56.41Z"/><path class="cls-49" d="M71,1.71c0-.15,0-.31,0-.46C72.44,1.61,73,3,73.85,3.88c-.64-.07-.83-.76-1.38-1-.42.1-.73-.18-1.08-.32A1.09,1.09,0,0,1,71,1.71Z"/><path class="cls-50" d="M24.7,15.65a.42.42,0,0,0-.44.21c-1.17-.17-2.08,0-2.17,1.46,0-1.12,0-2.24,0-3.36.13,1.32.92,1.67,2.12,1.44A.51.51,0,0,1,24.7,15.65Z"/><path class="cls-51" d="M20.88,56.9v-.22l-.09-.15.09-.15H23.5l0,.06c.6.34,1.3-.07,1.9.24v.21c-.56.53-1.26.37-1.93.38C22.62,57.21,21.69,57.52,20.88,56.9Z"/><path class="cls-51" d="M94.34,56.39l2.6,0,0,.05c.09.22.66.07.41.55a1.05,1.05,0,0,1-.31.18,2,2,0,0,1-.35.06c-.74,0-1.48,0-2.22,0h-.38l-.38,0a.94.94,0,0,1-.68-.31C93.29,56.21,94,56.78,94.34,56.39Z"/><path class="cls-52" d="M97.4,56.9,97,56.42c.62-.11,1.3.23,1.89-.22A7.45,7.45,0,0,1,99,52.88c.3,1.16,0,2.36.18,3.52-.14.34-.53.22-.75.42a.2.2,0,0,1-.13.24.88.88,0,0,1-.62,0A.5.5,0,0,1,97.4,56.9Z"/><path class="cls-53" d="M52.82,110.2c.62-.14,1.31.25,1.88-.26a2.55,2.55,0,0,1-.09-1.1c.12-.27.07-.63.37-.82.47.73,0,1.62.37,2.37C54.51,110.32,53.63,110.69,52.82,110.2Z"/><path class="cls-51" d="M89.49,56.41a.39.39,0,0,1,.08-.2,6.8,6.8,0,0,0,2.58.16l0,.06c.13.18.46.09.52.38a.41.41,0,0,1-.21.27,1.53,1.53,0,0,1-.52.13,17.62,17.62,0,0,1-2.18,0,1,1,0,0,1-.34-.1.67.67,0,0,1-.23-.27C89.19,56.61,89.4,56.55,89.49,56.41Z"/><path class="cls-52" d="M28.56,56.68a.51.51,0,0,1-.5-.28c.21-1.16-.1-2.35.18-3.51a7.55,7.55,0,0,1,.09,3.31c.59.45,1.27.11,1.9.22C29.73,56.91,29.11,56.57,28.56,56.68Z"/><path class="cls-54" d="M67.92,23.32a3.33,3.33,0,0,1-2.64.36s.15-.23.23-.36Z"/><path class="cls-55" d="M89.52,53.08c-1.68,0-1.66,0-1.69,1.64,0,.49.2,1-.23,1.47v-3.4h1.92Z"/><path class="cls-56" d="M16.09,56.19c-.45-.42-.23-1-.24-1.46,0-1.65,0-1.65-1.68-1.65,1.39-.74,2-.45,2,1C16.14,54.76,16.11,55.48,16.09,56.19Z"/><path class="cls-45" d="M28.33,56.2l-.09-3.31A3.88,3.88,0,0,1,30,52.83c-1.43.14-1.59,1.08-1.45,2.25C28.59,55.45,28.68,55.88,28.33,56.2Z"/><path class="cls-57" d="M99,52.88l-.09,3.32c-.35-.31-.26-.74-.22-1.11.13-1.17,0-2.12-1.45-2.26A4,4,0,0,1,99,52.88Z"/><path class="cls-58" d="M69,6.29a1.4,1.4,0,0,1,.92.19,10.44,10.44,0,0,0-.34,1.77.53.53,0,0,1-.24.23C68.61,7.84,69.07,7,69,6.29Z"/><path class="cls-59" d="M20.16,56.37c.87-1.13.5-2.35.24-3.55.59,0,.43.43.44.74,0,.94,0,1.88,0,2.82l0,0C20.61,56.58,20.37,56.66,20.16,56.37Z"/><path class="cls-60" d="M75.61,9.88H71.28a.13.13,0,0,1-.08-.15c0-.05,0-.08.06-.08l.27,0a15.84,15.84,0,0,1,4.07,0Z"/><path class="cls-58" d="M70.55,6.56c.47.17.19.62.34.92-.26,1.52-.56,1.71-1.58,1l.1-.09C70.44,8.18,70.11,7.13,70.55,6.56Z"/><path class="cls-61" d="M75.6,9.63H71.53c1.33-.48,2.69-.1,4-.22Z"/><path class="cls-62" d="M32.4,75.16c.25.75.64,1.52-.23,2.16A4.52,4.52,0,0,1,32.4,75.16Z"/><path class="cls-59" d="M19.2,52.82c-.48,1.15-.14,2.36-.24,3.55,0,.17-.11.19-.23.06l0-.06c0-.95,0-1.89,0-2.84C18.74,53.22,18.59,52.76,19.2,52.82Z"/><path class="cls-63" d="M56.17,110.44c.16.58-.58,1-.27,1.61l-.46,0,0-1.64Z"/><path class="cls-64" d="M70.77,3.12l.17,0A.85.85,0,0,1,71.39,3a.59.59,0,0,1,.29.13,1.21,1.21,0,0,1-.89.3,3.9,3.9,0,0,1-1.89,0l-.93,0c.24-.32.62-.14.92-.26A4.41,4.41,0,0,1,70.77,3.12Z"/><path class="cls-55" d="M89.52,56.19a3.71,3.71,0,0,1,0-2.87Z"/><path class="cls-52" d="M92.64,56.88l-.46-.45c.63-.11,1.31.2,1.9-.22h.17a.31.31,0,0,1,.09.18c-.28.5-.87.12-1.22.43C93,57.05,92.82,57,92.64,56.88Z"/><path class="cls-65" d="M77.27,24.76c-.83-.36-.49-.91-.23-1.44A2.38,2.38,0,0,1,77.27,24.76Z"/><path class="cls-66" d="M61.68,23.07c-.45.2-1,.71-1.21-.23C60.88,22.89,61.34,22.68,61.68,23.07Z"/><path class="cls-67" d="M61.92,63.13H59.53a.19.19,0,0,1-.06-.18q0-.09.06-.09a.19.19,0,0,1,.26.06h2.13Z"/><path class="cls-68" d="M101.62,56.23h.14c.59.4,1.27.11,1.89.21l0,.24c-.73-.1-1.5.26-2.17-.27A.27.27,0,0,1,101.62,56.23Z"/><path class="cls-68" d="M25.44,56.67c-.63-.11-1.32.26-1.9-.24.63-.11,1.31.19,1.91-.21h.14a.23.23,0,0,1,.1.17Z"/><path class="cls-69" d="M30.73,31.23c.59,0,.64.22.23,1C30.61,31.94,30.75,31.57,30.73,31.23Z"/><path class="cls-70" d="M70.77,3.12H68.89a.5.5,0,0,1,0-.21C69.52,3,70.18,2.71,70.77,3.12Z"/><path class="cls-71" d="M42.82,19.45l-1.06,0v-.41C42.1,19.23,42.64,18.81,42.82,19.45Z"/><path class="cls-72" d="M31.93,38.91c.14,0,.38,0,.4,0a.54.54,0,0,1-.17.73C31.88,39.46,31.93,39.18,31.93,38.91Z"/><path class="cls-3" d="M71.26,9.65a.86.86,0,0,0,0,.23v1.19c-.43-.45-.19-1-.19-1.5Z"/><path class="cls-62" d="M32.88,20.44c-.1.5-.32.63-.72.24C32.33,20.39,32.62,20.44,32.88,20.44Z"/><path class="cls-73" d="M32.16,40.11c.51.11.64.33.24.73C32.12,40.66,32.17,40.38,32.16,40.11Z"/><path class="cls-74" d="M32.89,44.19c.14,0,.31-.19.41,0s0,.37-.18.49A.47.47,0,0,1,32.89,44.19Z"/><path class="cls-75" d="M61.91,66.71q-8.82,0-17.63,0c-3.71,0-7.43,0-11.15,0,.34-.31.76-.19,1.15-.19H60.76C61.15,66.52,61.57,66.4,61.91,66.71Z"/><path class="cls-76" d="M33.38,63.44l19.41,0c-.29.31-.67.21-1,.21H34.4C34.05,63.63,33.68,63.73,33.38,63.44Z"/><path class="cls-77" d="M71.52,55.21c-.32,0-.49.12-.49.49,0,2.51.06,5,.09,7.51l-.07.09-.48.08c0-.08,0-.16,0-.24q0-4.19.08-8.37a.9.9,0,0,1,.91-.08A.37.37,0,0,1,71.52,55.21Z"/><path class="cls-78" d="M104.16,63.63a.71.71,0,0,1-.64.24H87.37a.38.38,0,0,1-.22-.05s0-.13,0-.19a1,1,0,0,1,.69-.12h15.66A1.1,1.1,0,0,1,104.16,63.63Z"/><path class="cls-78" d="M30.72,63.64a.73.73,0,0,1-.64.23H13.93a.38.38,0,0,1-.22-.05s0-.13,0-.19a1,1,0,0,1,.69-.12H30A1,1,0,0,1,30.72,63.64Z"/><path class="cls-79" d="M71.05,63.3l.07-.09c1.11,0,2.23-.07,3.35,0,.68,0,.92-.23.89-.9,0-.43-.21-1.12.52-1.09s.46.7.39,1.06c-.19.93.31.94,1,.93,1.12,0,2.24,0,3.35,0a19.2,19.2,0,0,1-4.22.15C74.61,63.36,72.83,63.31,71.05,63.3Z"/><path class="cls-80" d="M104.16,63.63h-17v-.2l17,0Z"/><path class="cls-80" d="M30.72,63.64h-17v-.21h17Z"/><path class="cls-81" d="M54.06,63.18a.17.17,0,0,0,0,.12h-.89l-.6-.17c-.1-.06-.23-.08-.27-.21a3.29,3.29,0,0,1-.47-2.64c.6,0,.48.63.82.86.29.49.52,1,1.19,1.12.34.16.81.11.93.6C54.63,63.18,54.22,62.88,54.06,63.18Z"/><path class="cls-82" d="M80.63,55.07l-.53.09a.57.57,0,0,1,0-.34.56.56,0,0,1,.25-.23,1,1,0,0,1,.82.15l0,0v8.34h-.26c0-2.28,0-4.57,0-6.85C80.87,55.87,81.1,55.39,80.63,55.07Z"/><path class="cls-83" d="M64.33,63.42h4.06A8.09,8.09,0,0,1,64.33,63.42Z"/><path class="cls-76" d="M59,63.42l2.86,0A4.32,4.32,0,0,1,59,63.42Z"/><path class="cls-84" d="M59.79,62.92l-.22,0c-.32.15-.54.12-.6-.28.65-1.52.41-3.12.42-4.7,0-.49-.24-.71-.74-.71-1.66,0-3.33,0-5,0-.64,0-.73.52-1,.86-.55.09-.48-.33-.53-.65A20.88,20.88,0,0,1,52,55c0-.66.5-.74,1-.75,2.29,0,4.59,0,6.88,0a1,1,0,0,1,1.08.56l-.27.63a2.2,2.2,0,0,0-.17.39c-.09,1.58,0,3.15,0,4.73a2,2,0,0,1-.22,1.25Z"/><path class="cls-85" d="M58.17,30.48c-.5.51,0,1.1-.11,1.68s-.46.51-.7.74a.78.78,0,0,1-.24.2,1.83,1.83,0,0,1-.32.07l-.33,0a7.48,7.48,0,0,1-.82,0A1.11,1.11,0,0,1,55.2,33a.25.25,0,0,0-.12,0c-.63.27-1,1.4-1.47,1.19a11.39,11.39,0,0,1-2.35-2c-.48-.43,0-.57.23-.78a13.65,13.65,0,0,1,3.71-1.58,9.69,9.69,0,0,1,1.76.31C57.3,30.46,57.77,30.35,58.17,30.48Z"/><path class="cls-86" d="M47.05,19.4l.08-4.94c.37-.39.75-.22,1.13,0a1.42,1.42,0,0,0,1.6.26c.21-.08.41-.17.62,0a2.21,2.21,0,0,1,.15,1.54c.35-.36-.22-1,.4-1.26a.76.76,0,0,1,.86.2c-.31,1.31-.25,2.79-1.67,3.59a1.34,1.34,0,0,1-.31.17c-.16.07-.32,0-.49,0,.14.07.31.06.43.16a1.07,1.07,0,0,1,.29.38c0,.13,0,.26,0,.39Z"/><path class="cls-87" d="M67.76,29.49c-1.89.53-3.7.22-5.48.29a.71.71,0,0,1-.83-.79c0-.92,0-1.84,0-2.76a1.1,1.1,0,0,1,.28-.75c.3-.22.47.18.66.34,1.36,1.12,3.16,1.5,4.49,2.71C67.2,28.82,67.44,29.13,67.76,29.49Z"/><path class="cls-88" d="M56.89,30.31c-.55-.22-1.29.22-1.69-.49,0-.48,0-1,0-1.43-.09-.92.29-1.25,1.22-1.26s1,.54.94,1.22,0,1.26,0,1.9A.34.34,0,0,1,56.89,30.31Z"/><path class="cls-89" d="M37.92,33.64a9.92,9.92,0,0,1-.28-2.77c.34,0,.6.22.57.37-.21,1.32.72,2.36.83,3.61a2.6,2.6,0,0,0,2.71,1.91,14.41,14.41,0,0,0,2.41-1c.25.3.06.52-.15.71a6.09,6.09,0,0,1-3.39,1.35c-.52.06-.91-.31-1.26-.75C38.54,36.08,38.43,34.78,37.92,33.64Z"/><path class="cls-90" d="M37.92,33.64c.91.5.62,1.56,1.08,2.32,1,1.74,1.78,2.15,3.57,1.12.56-.32,1.4-.44,1.59-1.28h.24a.51.51,0,0,1,.48.25,13.39,13.39,0,0,1-3.36,2.63,8.09,8.09,0,0,0-1.45-.44,2.22,2.22,0,0,1-1.67-1.71C37.93,35.61,38.23,34.57,37.92,33.64Z"/><path class="cls-91" d="M52.31,62.92l.27.21H50.4v-.2h0a2.47,2.47,0,0,0,.12-1.29c0-7,0-13.95,0-20.93a2.57,2.57,0,0,1,.11-1.29c.48.22.23.65.23,1,0,7,0,14.08,0,21.12C50.84,62.63,51.15,63.11,52.31,62.92Z"/><path class="cls-87" d="M38.4,36.52c.39-.22.39,0,.32.29s.07.41.29.57a3.71,3.71,0,0,0,2.16.78c.54,0,.28.32.35.51-.63.48-1.24,1-1.9,1.41-.26.17-.5.65-.91.33s-.15-.58-.09-.89,0-.4,0-.6c-.28-.36,0-.84-.23-1.2Z"/><path class="cls-3" d="M50.64,39.4q0,11.13,0,22.27c0,.42.16.89-.23,1.24v-.23q0-11,0-21.92C50.41,40.3,50.23,39.79,50.64,39.4Z"/><path class="cls-92" d="M42.24,20.91c.58-.66,1.32-.24,2-.24,1.26,0,2.51.33,3.79.25h.24c.52.32,1.15-.07,1.68.24a2.08,2.08,0,0,0,1.2.24c.15.27-.11.34-.24.47C48,21.54,45.1,21.4,42.24,20.91Z"/><path class="cls-93" d="M44.88,36a.5.5,0,0,1-.48-.25c.21-.78,1-.7,1.55-1.08,1-.76,2.15-1.36,3.24-2l.2.28L45.6,35.79c-.34-.19-.51.08-.72.25Z"/><path class="cls-94" d="M61,54.76a3.33,3.33,0,0,0-1.87-.24h-6c-.43,0-.87-.07-1,.49q-.12.16-.24,0v-.72c.07-.05.13-.13.2-.13a81.28,81.28,0,0,1,8.83,0c.12,0,.2.12.29.19Z"/><path class="cls-95" d="M61.16,54.31l-9.32,0V54a73.08,73.08,0,0,1,9.36,0Z"/><path class="cls-96" d="M61.2,54.05l-9.36,0c.17-.07.35-.22.52-.22,2.78,0,5.55,0,8.33,0C60.86,53.81,61,54,61.2,54.05Z"/><path class="cls-97" d="M52.32,57.39c0,.26,0,.53.19.73.66.77.35,1.68.35,2.55a.84.84,0,0,1-.33.56c-.65,0-.28-.76-.69-.95V60a1.33,1.33,0,0,0,0-1.2V57.16C52.12,57,52.18,57.27,52.32,57.39Z"/><path class="cls-91" d="M50.81,23.39v7.83h-.12V23.35Z"/><path class="cls-98" d="M50.64,38.2c0-.34.74-.5.24-1a8.4,8.4,0,0,1,2.07-2c-.62,1-1.24,2-1.88,2.93C51,38.28,50.79,38.21,50.64,38.2Z"/><path class="cls-99" d="M55.2,33h.46c.61.68.18,1.54.41,2.28a2.84,2.84,0,0,1,.17.49c.06.28-.12.42-.32.55C54.7,35.38,55.38,34.07,55.2,33Z"/><path class="cls-100" d="M60.46,55.47l.23-.08,0,6.37c0,.06-.06.12-.1.17l-.16-.25A40.23,40.23,0,0,1,60.46,55.47Z"/><path class="cls-101" d="M60.46,55.47v6.21l-.2.08c0-1.8,0-3.6,0-5.39C60.24,56.05,60.17,55.72,60.46,55.47Z"/><path class="cls-91" d="M54.76,48.33H60v.12H54.79Z"/><path class="cls-102" d="M45.6,20.22c-.64-.1-1.33.14-1.92-.29a3.85,3.85,0,0,1,2.89,0C46.32,20.34,45.89,20,45.6,20.22Z"/><path class="cls-103" d="M55.92,36.27l.24-.38c.05-.32.33-.48.48-.72.39-.7-.11-1.59.47-2.25l.25,0c0,.63,0,1.26,0,1.89C57.42,35.83,57,36.37,55.92,36.27Z"/><path class="cls-3" d="M43,48.28c.24-.36.61-.2.93-.25,1.07,0,2.14,0,3.2,0,.25,0,.78-.12.41.47a17.87,17.87,0,0,0-3.27-.13A3,3,0,0,1,43,48.28Z"/><path class="cls-91" d="M43,48.28c1.51.13,3.05-.29,4.54.24H43A.89.89,0,0,1,43,48.28Z"/><path class="cls-104" d="M50.88,21.87l.24-.47h.48c.52.32,1.15-.08,1.68.24-.25.51-.62.46-1.1.33A6.17,6.17,0,0,0,50.88,21.87Z"/><path class="cls-105" d="M52.32,57.39l-.48-.23V55h.24Z"/><path class="cls-39" d="M53.28,21.64c-.56-.1-1.18.21-1.68-.24C52.16,21.49,52.77,21.17,53.28,21.64Z"/><path class="cls-39" d="M49.92,21.16c-.56-.09-1.18.21-1.68-.24C48.8,21,49.41,20.69,49.92,21.16Z"/><path class="cls-106" d="M56.89,30.31l.47-.06.81.23C57.74,30.47,57.27,30.67,56.89,30.31Z"/><path class="cls-90" d="M38.41,37.72c.39.34.18.79.23,1.2C38.25,38.58,38.45,38.12,38.41,37.72Z"/><path class="cls-107" d="M51.85,58.84a.82.82,0,0,1,0,1.2Z"/><path class="cls-90" d="M44.88,36c.09-.51.31-.64.72-.25Z"/><path class="cls-91" d="M50.4,67.23V67h.48V90.2h-.24V89.07q0-10.25,0-20.47C50.63,68.14,50.81,67.63,50.4,67.23Z"/><path class="cls-108" d="M61,91.22a26.46,26.46,0,0,1-4.08,0A7.84,7.84,0,0,1,61,91.22Z"/><path class="cls-109" d="M81.13,52.86l-.46,1.47c-.09.45-.44.28-.71.27-.47-.62.08-1.12.22-1.66.31-1.22.2-1.53-1-1.73-.84-.13-1.81-.65-2.48.41a.3.3,0,0,1-.32.12c-1.2-.63-2.17.42-3.29.46-.74,0-1.27.09-1.42-.76-.1-.57-.51-.64-1-.68a.37.37,0,0,1-.13-.59,4.77,4.77,0,0,1,3-3.49,1.26,1.26,0,0,0,.89-1.42c-.06-1,.06-2.07,0-3.1s.33-1.26,1.2-1.16a.34.34,0,0,1,.17.24c0,.09.08.18,0,.29.1-.08,0-.16,0-.25a.36.36,0,0,1,.06-.28.33.33,0,0,1,.29,0c.87-.14,1.25.18,1.12,1.1-.06.47,0,1,0,1.43-.11,1.61-.11,3,1.83,3.77a3.78,3.78,0,0,1,2.08,3.29A5.5,5.5,0,0,1,81.13,52.86Z"/><path class="cls-110" d="M79.84,54.5c.3,0,.61.15.83-.17l.46.41-1,0c-.11.06-.2.16-.32.17a48.57,48.57,0,0,1-8,0c-.12,0-.21-.11-.31-.17l-.93,0c0-.26.25-.2.4-.27a1.22,1.22,0,0,1,.62-.31c2.37-.11,4.75,0,7.12,0A1.4,1.4,0,0,1,79.84,54.5Z"/><path class="cls-111" d="M76.13,41l-.29,0c-.32-1.5.06-3-.2-4.53a6.23,6.23,0,0,1,.09-2.28h.4Z"/><path class="cls-112" d="M71.56,54.5H71a5.19,5.19,0,0,1-.45-4.33l.21.5A13.21,13.21,0,0,1,71.56,54.5Z"/><path class="cls-113" d="M66,38.7V35.42h.36c.33,1.07,0,2.2.18,3.29h-.08a.27.27,0,0,1-.4,0Z"/><path class="cls-114" d="M70.78,34.46c-.57,0-1.15-.25-1.69.12-.25.16-.33-.13-.5-.19h-1.1c-.24.11-.3,0-.26-.22.64-.2,1.43.12,2-.52l.06,0c.29.84,1.07.24,1.55.53.07.07.09.14.06.2S70.8,34.46,70.78,34.46Z"/><path class="cls-115" d="M75.11,33l-4.79-.08a.14.14,0,0,1,0-.15s0-.07,0-.07a40.29,40.29,0,0,1,4.79,0A.2.2,0,0,1,75.11,33Z"/><path class="cls-116" d="M75.64,36.54c.42,1.49.07,3,.2,4.53v0a.14.14,0,0,1-.24,0l0-.11Z"/><path class="cls-117" d="M68.59,34.39l.5.19,0,1.21C68.22,35.6,68.85,34.82,68.59,34.39Z"/><path class="cls-118" d="M70,36.74c.49-.13,1-.14,1.3-.69.22,0,.34,0,.24.25C71.14,36.82,70.72,37.3,70,36.74Z"/><path class="cls-119" d="M81.13,52.86c0-.75,0-1.5,0-2.25A2.8,2.8,0,0,1,81.13,52.86Z"/><path class="cls-120" d="M70.32,32.72v.22l-1.08.69-.06,0c.08-.23.16-.45.23-.67h0Z"/><path class="cls-121" d="M71.54,36.3l-.24-.25a1.14,1.14,0,0,1,.24-1A.86.86,0,0,1,71.54,36.3Z"/><path class="cls-113" d="M75.11,33v-.31a.74.74,0,0,1,.63.81C75.28,33.64,75.33,33.16,75.11,33Z"/><path class="cls-122" d="M67.23,34.17l.26.22-.82.47C66.54,34.3,66.93,34.28,67.23,34.17Z"/><path class="cls-123" d="M70.78,34.46v-.3c.34.15.77.23.49.77Z"/><path class="cls-124" d="M33.87,96.54a10.18,10.18,0,0,1-.27,2.86c-.07.1-.14.1-.2,0l.16-2.18a1.51,1.51,0,0,1,0-.94C33.79,96.2,33.9,96.29,33.87,96.54Z"/><path class="cls-125" d="M32.86,109.2l-.38.69a2.64,2.64,0,0,1,.14-1.88.49.49,0,0,1,.36.35C33,108.65,33.1,109,32.86,109.2Z"/><path class="cls-126" d="M33.08,102c-.4-.69-.12-1.43-.19-2.19.36.22.17.53.24.77a.93.93,0,0,1,.22.72A1,1,0,0,1,33.08,102Z"/><path class="cls-127" d="M32.86,109.2l0-.94c-.08-.25-.16-.49.08-.7.39.58.13,1.23.18,1.85,0,0-.05,0-.08,0Z"/><path class="cls-128" d="M33.64,96.3c0,.31,0,.61-.08.92a3,3,0,0,1-.14-1.9l.09,0a.33.33,0,0,1,.1.06A.69.69,0,0,1,33.64,96.3Z"/><path class="cls-129" d="M33.11,106.82l-.21,0c-.24-.13-.29-.37-.37-.59s-.1-.6.12-.86l.21,0a1.29,1.29,0,0,1,.37.6C33.2,106.25,33.34,106.56,33.11,106.82Z"/><path class="cls-130" d="M32.67,106.37c.08.16.15.33.23.49s0,.46,0,.7-.05.46-.08.7l-.22-.25c0-.31,0-.63,0-1S32.44,106.58,32.67,106.37Z"/><path class="cls-131" d="M34.28,93.13c0,.35.12.71-.18,1a.49.49,0,0,1-.36-.36c0-.28-.12-.59.11-.85l.21,0A.41.41,0,0,1,34.28,93.13Z"/><path class="cls-132" d="M33.87,93.89l.23.25c0,.39,0,.79,0,1.19a.39.39,0,0,1-.06.52c-.38-.06-.37-.28-.23-.55l0-1C33.72,94.17,33.69,94,33.87,93.89Z"/><path class="cls-133" d="M32.67,106.37c0,.23,0,.46-.07.69a2.38,2.38,0,0,1-.14-1.66s0,0,.09,0,.06,0,.1,0C32.66,105.73,32.66,106.05,32.67,106.37Z"/><path class="cls-132" d="M33.09,105.86c-.08-.16-.16-.32-.23-.49,0-.32,0-.64,0-1a.47.47,0,0,1,0-.51c.22,0,.34.07.28.31v1.19C33.25,105.58,33.27,105.73,33.09,105.86Z"/><path class="cls-134" d="M33.14,104.22l-.23-.25a.84.84,0,0,1,0-1l.2,0a.49.49,0,0,1,.37.36c0,.28.11.59-.11.86A.76.76,0,0,0,33.14,104.22Z"/><path class="cls-132" d="M33.33,103.22l-.24-.25c0-.31,0-.62,0-.94s.05-.45.08-.68c.42,0,.34.21.21.46l0,1C33.48,102.94,33.51,103.1,33.33,103.22Z"/><path class="cls-135" d="M32.89,103c0,.33,0,.65,0,1,0,.15,0,.3-.07.45-.35-.44-.19-.94-.15-1.42,0,0,.06,0,.09,0Z"/><path class="cls-135" d="M33.09,105.86l.06-.45c.36.44.2.94.15,1.42,0,0-.06,0-.09,0a.19.19,0,0,1-.1-.05C33.1,106.5,33.09,106.18,33.09,105.86Z"/><path class="cls-136" d="M33.37,101.81l-.21-.46,0-.74.2,0a.42.42,0,0,1,.23.24C33.58,101.16,33.68,101.52,33.37,101.81Z"/><path class="cls-137" d="M34.28,93.13l-.22-.23c0-.42-.09-.85.16-1.28A3.52,3.52,0,0,1,34.28,93.13Z"/><path class="cls-135" d="M33.33,103.22c0-.15,0-.3.07-.45.35.45.19.94.15,1.42a.16.16,0,0,1-.1,0l-.1,0C33.34,103.86,33.34,103.54,33.33,103.22Z"/><path class="cls-135" d="M33.87,93.89c0,.15,0,.3-.07.45-.35-.44-.2-.94-.14-1.42,0,0,.06,0,.09,0a.19.19,0,0,1,.1.05C33.86,93.25,33.87,93.57,33.87,93.89Z"/><path class="cls-135" d="M34.05,95.77l.06-.44a1.58,1.58,0,0,1,.13,1.42l-.09,0c0-.07,0-.15-.08-.22A.6.6,0,0,1,34.05,95.77Z"/><path class="cls-131" d="M34.05,95.77c0,.24,0,.49,0,.74l-.2,0-.23-.24,0-1,.21,0C33.9,95.45,34,95.61,34.05,95.77Z"/><path class="cls-138" d="M33.56,100.81l-.23-.24c0-.39,0-.78.07-1.17h.2C33.58,99.87,33.57,100.34,33.56,100.81Z"/><path class="cls-127" d="M55,98.94V96.82c.11,2.54.52,5.08,0,7.61-.33-.26-.24-.64-.27-1v-1.93C54.82,100.66,54.5,99.76,55,98.94Z"/><path class="cls-139" d="M55,98.94l0,2.64a6.92,6.92,0,0,0-.09,1.76,1.34,1.34,0,0,1-.05.35.18.18,0,0,1-.3,0l0-3.85c.22-.28-.06-.68.23-1Z"/><path class="cls-140" d="M54.74,98.89c-.09.32.09.69-.23,1,0-1,0-2.07-.07-3.1a10.08,10.08,0,0,1-.08-1.9c0-.13,0-.26,0-.38s.16-.18.3-.1Z"/><path class="cls-141" d="M54.7,103.74l0-.25c.06-.12.12-.12.18,0,0,.32,0,.64.07,1,0,1.2,0,2.39,0,3.59,0,.24,0,.54-.23.72a1.34,1.34,0,0,1-.06-1.17v-1.23A8.1,8.1,0,0,1,54.7,103.74Z"/><path class="cls-131" d="M54.51,94.37l0,.25c-.09.08-.16.06-.21-.05V91.72c.61.29.41.68.44,1C54.45,93.24,54.74,93.83,54.51,94.37Z"/><path class="cls-17" d="M54.19,99.93V102h-.12V99.92Z"/><path class="cls-17" d="M54.7,103.74c0,.86,0,1.73,0,2.6-.43-.86-.1-1.77-.19-2.65Z"/><path class="cls-142" d="M54.69,107.57l.06,1.17c0,.4,0,.8,0,1.2-.43-.51-.13-1.11-.22-1.66C54.49,108,54.43,107.75,54.69,107.57Z"/><path class="cls-17" d="M54.25,94.57l.21.05c0,.71,0,1.41,0,2.12C54,96.05,54.32,95.29,54.25,94.57Z"/><path class="cls-143" d="M54.51,94.37c0-.56-.22-1.15.18-1.67,0,.56,0,1.11,0,1.66h-.17Z"/><path class="cls-144" d="M47.14,14.2c-.17-.5.17-.71.52-.92a14.76,14.76,0,0,0,1.71-1c.87-.66,1.41-.43,1.79.51.14.47.55.41.91.47a.46.46,0,0,1,.18.57,5.56,5.56,0,0,1-2.19.61,3.18,3.18,0,0,0-1.93,0C47.81,14.25,47.44,14.41,47.14,14.2Z"/><path class="cls-145" d="M49.94,14.13c.84.3,1.47-.72,2.31-.35.54.63.55,1.13-.36,1.4l-1-.09c-.27,0-.35-.23-.46-.43l-.52.23A.52.52,0,0,1,49.94,14.13Z"/><path class="cls-146" d="M50.14,19.48c-.31-.22-.74-.26-1-.71h1.09C50.19,19,50.16,19.24,50.14,19.48Z"/><path class="cls-147" d="M52.07,13.21c-.46.15-.92.28-.91-.47C51.41,13,51.87,12.85,52.07,13.21Z"/><path class="cls-148" d="M47.14,14.2l1.07,0a.35.35,0,0,1,0,.54,1.33,1.33,0,0,0-1.07-.25Z"/><path class="cls-149" d="M66,38.7h.4a2.29,2.29,0,0,1-.19,1.46A2.31,2.31,0,0,1,66,38.7Z"/><path class="cls-150" d="M5.73,62.89H5.55C5,62,4,61.54,3.61,60.5S3.86,59,5,59.05c1.5.1,3,.05,4.53,0,.73,0,1,.16,1.06,1,0,2.28-.28,2.6-2.57,2.65C7.27,62.7,6.46,62.44,5.73,62.89Z"/><path class="cls-151" d="M3.61,60.5c.63.81,1.77,1.2,1.94,2.38A2.82,2.82,0,0,1,3.39,61Z"/><path class="cls-152" d="M3.35,60c-.14.24-.29.48-.44.72V57.19C3.84,58.29,3.18,59.21,3.35,60Z"/><path class="cls-153" d="M98.48,22.82a7.55,7.55,0,0,1,.82,1c.45.75.85.69,1.44.11.79-.78,1.67-1.47,2.51-2.2.23-.19.46-.51.78-.11s-.07.56-.28.75c-1.13,1-2.28,2-3.42,3-.17.14-.36.46-.59.21A23.35,23.35,0,0,1,98,23.4C97.78,23.09,98.15,23,98.48,22.82Z"/><path class="cls-154" d="M70.55,6.56a11.39,11.39,0,0,1,0,1.17c-.08.7-.45,1-1.13.66.12-.65-.53-1.49.48-1.91Z"/><path class="cls-155" d="M71.49,2.44c.42,0,.65.34,1,.48-.19.34-.49.26-.79.19H71.6l-.06,0A.51.51,0,0,1,71.49,2.44Z"/><path class="cls-156" d="M68.9,3.42h1.89A1.83,1.83,0,0,1,68.9,3.42Z"/><path class="cls-157" d="M28.8,56.93h1A12.59,12.59,0,0,1,30,60.7c-.34.61-.69,1.13-1.33.27C28.62,59.62,28.33,58.26,28.8,56.93Z"/><path class="cls-158" d="M29.74,60.75c0-1.28,0-2.56.07-3.83h.45c-.12,1.45.27,2.94-.24,4.37C29.79,61.19,29.77,61,29.74,60.75Z"/><path class="cls-159" d="M28.8,56.93V61c-.18,0-.34-.07-.34-.24a19.08,19.08,0,0,1,.12-3.85h0A.5.5,0,0,1,28.8,56.93Z"/><path class="cls-160" d="M18.73,56.43l.23-.06h1.2l.7.06,0,.25C20.17,56.56,19.4,56.93,18.73,56.43Z"/><path class="cls-161" d="M16.05,56.41l-.23.28a1,1,0,0,1-1.4,0l-.23-.28Z"/><path class="cls-162" d="M89.49,56.41l-.23.28a1,1,0,0,1-1.4,0l-.23-.28Z"/><path class="cls-163" d="M87.66,61.2a40.59,40.59,0,0,1-.11-4.27l.27,0L88,57a11.37,11.37,0,0,1,.11,3.77C88,61,87.93,61.22,87.66,61.2Z"/><path class="cls-164" d="M87.86,56.69h1.4a1.55,1.55,0,0,0,0,.21l-.08.11a.85.85,0,0,1-.24.09,1.09,1.09,0,0,1-.26,0h-.39a1.17,1.17,0,0,1-.26,0,.53.53,0,0,1-.2-.16l-.05,0A1.18,1.18,0,0,0,87.86,56.69Z"/><path class="cls-165" d="M14.17,61l-.05-4.06.26,0,.16.15a9.79,9.79,0,0,1,.1,3.58C14.55,60.84,14.45,61,14.17,61Z"/><path class="cls-164" d="M14.42,56.69h1.4c0,.07,0,.14,0,.21l-.1.12a.86.86,0,0,1-.28.11,1.9,1.9,0,0,1-.75,0,.9.9,0,0,1-.26-.17l-.09,0A1.55,1.55,0,0,0,14.42,56.69Z"/><path class="cls-166" d="M59,62.7c.12.2.33.21.53.24a.41.41,0,0,0,0,.19l-3.33,0a.22.22,0,0,1,0-.35A5,5,0,0,1,59,62.7Z"/><path class="cls-167" d="M56.16,62.94a.78.78,0,0,0,0,.21l-2.14,0c.13-.35.45-.23.7-.28A1,1,0,0,1,56.16,62.94Z"/><path class="cls-168" d="M25.53,61a.93.93,0,0,1-1.27.73c-.6-.16-.74-.65-.74-1.21,0-1.19,0-2.39,0-3.58l1.92,0Z"/><path class="cls-169" d="M28.58,56.92c.11,1.36-.27,2.75.22,4.09.5.58.66,0,.94-.26.23.11.26.33.28.55-.69.47-1.39.93-1.77-.33,0-1,0-2,.05-3C28.32,57.63,28.13,57.19,28.58,56.92Z"/><path class="cls-168" d="M103.69,56.92c0,1.2,0,2.39,0,3.58,0,.57-.14,1-.74,1.21a.92.92,0,0,1-1.26-.73,22.49,22.49,0,0,0,0-2.72c-.1-1.11.31-1.53,1.39-1.36A3.84,3.84,0,0,0,103.69,56.92Z"/><path class="cls-170" d="M99.06,56.93c0,1.12,0,2.23,0,3.35,0,.42.09.9-.44,1.13a.5.5,0,0,1-.32-.23,1,1,0,0,1,0-.41c.07-.87,0-1.74,0-2.62a1.7,1.7,0,0,1,.33-1.23Z"/><path class="cls-171" d="M98.64,56.92c-.1,1.38.24,2.78-.2,4.14a4.74,4.74,0,0,1,0-4.14v-.1Z"/><path class="cls-172" d="M19.85,61.48l-.37.25c-.93-1.55-.53-3.19-.3-4.81h1.23c.47,1.27.15,2.58.19,3.87A.9.9,0,0,1,19.85,61.48Z"/><path class="cls-173" d="M19.18,56.92c.07,1.6-.23,3.23.3,4.81-.64-.22-.77-.72-.76-1.33,0-1.16,0-2.32,0-3.48Z"/><path class="cls-174" d="M20.39,61c0-1.35,0-2.7,0-4h.46c-.12,1.44.25,2.9-.21,4.31C20.41,61.3,20.32,61.22,20.39,61Z"/><path class="cls-175" d="M16.14,56.93c0,1.14,0,2.28,0,3.42,0,.46.08,1-.53,1.18a.7.7,0,0,1-.19-.36,1.88,1.88,0,0,1,0-.41,20.32,20.32,0,0,0,.07-2.59,1.83,1.83,0,0,1,.28-1.23l.07,0Z"/><path class="cls-172" d="M92.64,56.88l.48-.06.72.1c.49,1.19.14,2.43.22,3.64a1.3,1.3,0,0,1-.37.76c-.69.5-1,.18-1.26-.5,0-1.3-.25-2.62.18-3.91Z"/><path class="cls-176" d="M98.51,61.24a.27.27,0,0,1,.11.17c-.76.72-1.25.39-1.6-.43.22-1.34-.12-2.7.18-4l.2,0h0c.62.85.28,1.82.34,2.74C97.81,60.3,97.83,60.91,98.51,61.24Z"/><path class="cls-177" d="M93.69,61.27l.18-.52c.28-1.26-.1-2.56.21-3.82h.22c0,1.11,0,2.21,0,3.31,0,.47,0,1-.46,1.25A.28.28,0,0,1,93.69,61.27Z"/><path class="cls-178" d="M97.2,56.94c-.1,1.35.21,2.71-.18,4,0-1.35,0-2.7-.07-4.06Z"/><path class="cls-179" d="M94.08,56.93c-.12,1.27.25,2.57-.21,3.82l0-3.83A.65.65,0,0,1,94.08,56.93Z"/><path class="cls-180" d="M98.51,61.24c-.88.36-1.13-.09-1.12-.88,0-1.15,0-2.3,0-3.45h1c0,1.38,0,2.76,0,4.14A.29.29,0,0,0,98.51,61.24Z"/><path class="cls-181" d="M92.61,56.91l0,4.09c-.07.1-.1.24-.25.27-.49-1.43-.1-2.9-.23-4.35Z"/><path class="cls-182" d="M89.57,56.93a38.05,38.05,0,0,1-.11,4.27c-.28,0-.36-.2-.44-.41,0-1.29-.34-2.6.23-3.86l0,0Z"/><path class="cls-183" d="M80.1,55.16c-2.5,2.72-6.22,2.77-8.43.11a.41.41,0,0,1,.24-.19,1,1,0,0,1,.48.07c.29.13.57.31.86.47a5.41,5.41,0,0,0,4.76,0,4.05,4.05,0,0,0,.84-.52,1.34,1.34,0,0,1,.46-.2c.28,0,.57-.11.81.12A.16.16,0,0,1,80.1,55.16Z"/><path class="cls-184" d="M75.87,60.78c-.63,0-1.13-.16-1-.87s.35-1.91,1-1.91,1,1.13,1.11,1.89S76.39,60.72,75.87,60.78Z"/><path class="cls-185" d="M80.12,55l-.89.08a26.51,26.51,0,0,1-6.66.13c-.27,0-.54-.17-.82,0l-.08.08a.34.34,0,0,1-.15-.06v-.42h8.63A2.07,2.07,0,0,1,80.12,55Z"/><path class="cls-186" d="M56.16,62.94l-1.4,0c-.24-.37-.79,0-1-.46a2.42,2.42,0,0,1-1.16-1.7l-.09-2.62c-.07-.88.22-1.26,1.2-1.21,1.68.09,3.35.06,5,0,.75,0,1.09.16,1,1-.07,1,0,2.07,0,3.11A2,2,0,0,1,59,62.7C58.11,63.08,57.12,62.8,56.16,62.94Z"/><path class="cls-187" d="M52.6,60.74c.38.57.77,1.13,1.16,1.7-.92.11-1-.59-1.23-1.21C52.55,61.07,52.58,60.9,52.6,60.74Z"/><path class="cls-188" d="M56.84,35.52c-.21.15-.38.38-.68.37l-.28-.27a14.49,14.49,0,0,1-.09-1.74c-.1-.69.31-.85.84-1h.25A5.28,5.28,0,0,1,56.84,35.52Z"/><path class="cls-189" d="M56.63,32.93c-.67.25-.77.77-.72,1.4a11.16,11.16,0,0,1,0,1.29c-.48-.86-.1-1.78-.22-2.67Z"/><path class="cls-190" d="M56.84,35.52c0-.86,0-1.73,0-2.59a.26.26,0,0,1,.23,0C57,33.78,57.42,34.7,56.84,35.52Z"/><path class="cls-191" d="M48.2,14.71v-.54a1.33,1.33,0,0,1,1.73,0l0,.76A1.12,1.12,0,0,1,48.2,14.71Z"/><path class="cls-192" d="M50.43,14.66c.25,0,.34.25.47.43s0,.62.07.93.16.42-.1.5a.83.83,0,0,1-.55-.1c-.47-.31.13-.27.14-.39C50.47,15.57,50.44,15.12,50.43,14.66Z"/><path class="cls-193" d="M50.47,17.42a1.27,1.27,0,0,1-1.06.06A1,1,0,0,1,50.47,17.42Z"/><path class="cls-194" d="M71.56,54.5a6.9,6.9,0,0,1-.8-3.83c.68-.49,1.06-.42,1.12.51,0,.77.1,1.33,1.18.65.62-.39,1.62-.15,2.27-.81,0-.06.33,0,.43.1.51.5.88.68,1.1-.24.08-.37.43-.34.79-.26A21.39,21.39,0,0,0,80,51c.58,0,.6.38.61.81a7,7,0,0,1-.8,2.7Z"/><path class="cls-195" d="M76.61,49.38c0,.51-.28.81-.76.77a.72.72,0,0,1-.7-.8.66.66,0,0,1,.71-.65A.67.67,0,0,1,76.61,49.38Z"/><path class="cls-195" d="M73.66,50.15c-.23.33-.44.68-.93.54a.61.61,0,0,1-.46-.48.6.6,0,0,1,.34-.69c.52-.25.79.11,1,.47.08,0,.1.07.08.11A.1.1,0,0,1,73.66,50.15Z"/><path class="cls-196" d="M77.77,49.65c0,.35-.14.52-.42.54a.44.44,0,0,1-.49-.41.45.45,0,0,1,.43-.49C77.58,49.26,77.69,49.48,77.77,49.65Z"/><path class="cls-197" d="M75.61,41.11l.24,0c.18.43.41.85,0,1.37C75.45,42,75.66,41.54,75.61,41.11Z"/><path class="cls-198" d="M73.66,50.15a.18.18,0,0,1,0-.16c.53.15.14.47.08.72Z"/><path class="cls-199" d="M54.92,103.48h-.18c.06-.64-.22-1.31.19-1.91C54.93,102.22,54.92,102.85,54.92,103.48Z"/><path class="cls-200" d="M48.42,13.45c.26-.48.63-.58,1.42-.43Z"/><path class="cls-201" d="M88.32,57h.48c.5,1.19.11,2.45.25,3.66a2.32,2.32,0,0,0,.06.38c0,.29-.11.48-.43.49l-.35.24a.84.84,0,0,1-.33-.66c0-.12,0-.25.07-.38C88.22,59.44,87.81,58.16,88.32,57Z"/><path class="cls-202" d="M92.38,61.27l.25-.27a.71.71,0,0,0,1.06.27l.15.21A.87.87,0,0,1,92.38,61.27Z"/><path class="cls-203" d="M88.07,61c.09.24.18.48.26.72-.3-.07-.6-.15-.67-.52l.23-.25.11,0Z"/><path class="cls-204" d="M88.68,61.48l.37-.48.07-.09.11,0,.23.25C89.3,61.56,89.13,61.91,88.68,61.48Z"/><path class="cls-205" d="M15.58,61.21l0,.32c-.73.48-1.24.38-1.44-.54l.26-.28a.32.32,0,0,1,.3,0A2.72,2.72,0,0,0,15.58,61.21Z"/><path class="cls-206" d="M20.39,61l.27.27c-.19.38-.4.63-.81.24Z"/><path class="cls-207" d="M88.07,61l-.18,0c0-1.34,0-2.68,0-4a.91.91,0,0,1,.23,0,22.61,22.61,0,0,1,.05,4Z"/><path class="cls-208" d="M88.15,61c0-1.34,0-2.69-.05-4a.34.34,0,0,1,.22,0A20,20,0,0,1,88.15,61Z"/><path class="cls-209" d="M89.23,61l-.18,0L89,61a22.61,22.61,0,0,1,0-4,.91.91,0,0,1,.23,0C89.25,58.27,89.24,59.61,89.23,61Z"/><path class="cls-208" d="M89,56.94c0,1.34,0,2.69,0,4a20,20,0,0,1-.17-4A.34.34,0,0,1,89,56.94Z"/><path class="cls-210" d="M14.61,60.81l-.18-.1c0-1.25,0-2.51,0-3.77a.57.57,0,0,0,.18,0A4.35,4.35,0,0,1,14.61,60.81Z"/><path class="cls-180" d="M14.61,60.81c0-1.28,0-2.56,0-3.84h.94a14.53,14.53,0,0,1,0,4.06.32.32,0,0,1,0,.19C15.05,61.58,14.72,61.48,14.61,60.81Z"/><path class="cls-210" d="M15.61,61c0-1.36,0-2.71,0-4.06l.2,0C15.72,58.3,16.05,59.67,15.61,61Z"/><path class="cls-211" d="M78.27,55.78a4.74,4.74,0,0,1-5.3-.07c.06-.1.08-.25.2-.28a15,15,0,0,1,5,0C78.27,55.4,78.31,55.61,78.27,55.78Z"/><path class="cls-212" d="M78.27,55.78a10.81,10.81,0,0,0-5.3-.07,1,1,0,0,1-.63-.45,32.13,32.13,0,0,1,6.65,0A1.16,1.16,0,0,1,78.27,55.78Z"/><path class="cls-213" d="M79,55.26H72.34l-.59-.07a40.64,40.64,0,0,1,7.48-.1Z"/><path class="cls-214" d="M59.21,57.33H53.06v-.12h6.18Z"/></g></g></svg>